<svg width="327" height="327" viewBox="0 0 327 327" fill="none" xmlns="http://www.w3.org/2000/svg">
<path d="M259.687 106.316H255.377V102H252.316V106.316H248V109.377H252.316V113.694H255.377V109.377H259.687V106.316Z" fill="#CAD2F9"/>
<path d="M197.333 214.813H193.52V211H190.813V214.813H187V217.514H190.813V221.327H193.52V217.514H197.333V214.813Z" fill="#CAD2F9"/>
<path d="M292.488 137.76H289.722V135H287.76V137.76H285V139.722H287.76V142.488H289.722V139.722H292.488V137.76Z" fill="#CAD2F9"/>
<path d="M106.936 93.7775H104.169V91.0176H102.207V93.7775H99.4473V95.7395H102.207V98.5059H104.169V95.7395H106.936V93.7775Z" fill="#CAD2F9"/>
<path d="M50.3332 123.813H46.5204V120H43.8128V123.813H40V126.52H43.8128V130.333H46.5204V126.52H50.3332V123.813Z" fill="#CAD2F9"/>
<path d="M127.495 181.766H124.728V179H122.766V181.766H120V183.728H122.766V186.495H124.728V183.728H127.495V181.766Z" fill="#CAD2F9"/>
<path d="M300.016 161.976C300.016 162.722 299.414 163.323 298.669 163.323C297.923 163.323 297.321 162.722 297.321 161.976C297.321 161.231 297.923 160.629 298.669 160.629C299.414 160.629 300.016 161.231 300.016 161.976Z" fill="#E2E6FF"/>
<path d="M115.114 194.557C115.114 195.97 113.97 197.114 112.557 197.114C111.145 197.114 110 195.97 110 194.557C110 193.145 111.145 192 112.557 192C113.97 192 115.114 193.145 115.114 194.557Z" fill="#E2E6FF"/>
<path d="M65.1143 113.557C65.1143 114.97 63.9698 116.114 62.5571 116.114C61.1445 116.114 60 114.97 60 113.557C60 112.145 61.1445 111 62.5571 111C63.9698 111 65.1143 112.145 65.1143 113.557Z" fill="#E2E6FF"/>
<path d="M260.114 160.557C260.114 161.97 258.97 163.114 257.557 163.114C256.145 163.114 255 161.97 255 160.557C255 159.145 256.145 158 257.557 158C258.97 158 260.114 159.145 260.114 160.557Z" fill="#E2E6FF"/>
<path d="M194.557 104.114C195.969 104.114 197.114 102.969 197.114 101.557C197.114 100.145 195.969 99 194.557 99C193.145 99 192 100.145 192 101.557C192 102.969 193.145 104.114 194.557 104.114Z" fill="#E2E6FF"/>
<path d="M90.6945 153.347C90.6945 154.093 90.0928 154.694 89.3472 154.694C88.6017 154.694 88 154.093 88 153.347C88 152.602 88.6017 152 89.3472 152C90.0928 152 90.6945 152.602 90.6945 153.347Z" fill="#E2E6FF"/>
<path d="M202.694 93.3472C202.694 94.0928 202.093 94.6945 201.347 94.6945C200.602 94.6945 200 94.0928 200 93.3472C200 92.6017 200.602 92 201.347 92C202.093 92 202.694 92.6017 202.694 93.3472Z" fill="#E2E6FF"/>
<path d="M126.891 85.3269C126.203 82.6524 127.814 79.927 130.489 79.2394L159.544 71.7697C162.218 71.0821 164.944 72.6928 165.631 75.3672L170.86 95.7059L165.533 97.0753L136.962 104.421C134.288 105.108 131.562 103.497 130.875 100.823L126.891 85.3269Z" fill="#C3CEE6"/>
<path d="M170.86 95.7059L165.533 97.0753L170.2 100.114C170.964 100.612 171.941 99.9104 171.714 99.0271L170.86 95.7059Z" fill="#C3CEE6"/>
<path d="M50.0408 159.091C52.0864 155.175 56.9194 153.658 60.8356 155.704L91.5114 171.727C95.4276 173.772 96.9441 178.605 94.8985 182.522L83.3724 204.588L77.2045 201.366L45.6057 184.861C41.6894 182.816 40.173 177.983 42.2186 174.067L50.0408 159.091Z" fill="#C3CEE6"/>
<path d="M83.3724 204.588L77.2045 201.366L79.1955 208.833C79.4305 209.714 80.6259 209.847 81.0481 209.038L83.3724 204.588Z" fill="#C3CEE6"/>
<path d="M213.504 207.932C211.569 201.594 215.138 194.886 221.477 192.951L278.625 175.505C284.964 173.569 291.671 177.139 293.606 183.478L305.998 224.067L294.983 227.43L237.372 245.018C231.034 246.953 224.327 243.383 222.391 237.044L213.504 207.932Z" fill="#C3CEE6"/>
<path d="M305.998 224.067L294.983 227.43L307.451 234.778C308.237 235.241 309.182 234.496 308.916 233.624L305.998 224.067Z" fill="#C3CEE6"/>
<path d="M266.849 198.961L262.443 196.718L257.067 207.266L246.521 201.896L244.278 206.301L254.824 211.671L249.456 222.223L253.861 224.466L259.229 213.914L269.783 219.289L272.026 214.883L261.472 209.509L266.849 198.961Z" fill="#EEF4FF"/>
<path d="M78.2276 177.162L77.1812 174.023L69.6602 176.521L67.1619 169L64.0227 170.046L66.521 177.567L59 180.066L60.0399 183.205L67.5674 180.707L70.0657 188.228L73.2049 187.181L70.7066 179.66L78.2276 177.162Z" fill="#EEF4FF"/>
<path d="M152.367 83.1249L150.149 82L147.448 87.3105L142.131 84.6095L141 86.8265L146.317 89.5341L143.609 94.8446L145.827 95.976L148.534 90.659L153.851 93.3665L154.976 91.1495L149.665 88.4419L152.367 83.1249Z" fill="#EEF4FF"/>
<path d="M98.2959 144.412V146.341H78.2764V144.412H87.0898V139.358H80.5713V128.958H95.9033V139.358H89.3848V144.412H98.2959ZM82.8174 137.527H93.6328V130.813H82.8174V137.527ZM107.988 130.691C107.988 133.414 110.112 135.928 113.481 136.917L112.31 138.724C109.758 137.942 107.83 136.282 106.829 134.134C105.852 136.441 103.899 138.248 101.274 139.114L100.103 137.283C103.508 136.246 105.632 133.56 105.645 130.691V130.447H100.737V128.567H112.798V130.447H107.988V130.691ZM103.716 148.807V140.066H105.986V142.508H115.728V140.066H118.022V148.807H103.716ZM105.986 146.927H115.728V144.339H105.986V146.927ZM115.703 139.041V127.2H118.022V139.041H115.703ZM128.13 128.177C131.328 128.177 133.574 129.935 133.599 132.547C133.574 134.769 131.89 136.392 129.351 136.795V138.748C131.279 138.638 133.232 138.455 135.039 138.187L135.21 139.896C130.62 140.726 125.469 140.811 121.709 140.799L121.465 138.919C123.101 138.931 125.017 138.919 127.031 138.846V136.819C124.419 136.453 122.673 134.805 122.686 132.547C122.673 129.935 124.919 128.177 128.13 128.177ZM124.565 148.611V142.483H126.885V146.707H139.482V148.611H124.565ZM124.858 132.547C124.834 134.097 126.201 135.11 128.13 135.11C130.071 135.11 131.401 134.097 131.401 132.547C131.401 130.96 130.071 129.959 128.13 129.959C126.201 129.959 124.834 130.96 124.858 132.547ZM136.382 143.948V127.225H138.701V134.451H141.826V136.404H138.701V143.948H136.382ZM163.115 144.51V146.463H143.096V144.51H148.564V140.652H145.537V133.694H158.379V130.643H145.488V128.738H160.674V135.574H147.832V138.748H161.187V140.652H157.866V144.51H163.115ZM150.811 144.51H155.596V140.652H150.811V144.51ZM177.446 134.207V136.087H173.174V138.858C175.115 138.76 177.043 138.626 178.838 138.431L179.009 140.14C174.346 140.774 169.231 140.909 165.117 140.896L164.8 139.041C166.667 139.029 168.743 139.004 170.879 138.943V136.087H166.753V128.592H177.251V130.472H169.072V134.207H177.446ZM168.413 148.611V142.435H170.732V146.731H183.525V148.611H168.413ZM180.522 143.606V127.2H182.842V143.606H180.522ZM198.955 133.89C198.955 137.295 200.542 140.811 203.594 142.41L202.275 144.144C200.151 143.021 198.674 140.933 197.881 138.467C197.112 141.104 195.647 143.387 193.535 144.607L192.168 142.898C195.183 141.141 196.758 137.417 196.782 133.89V133.084H192.729V131.155H196.782V127.981H198.955V131.155H202.935V133.084H198.955V133.89ZM204.277 148.001V127.615H206.475V135.892H209.087V127.2H211.309V149.075H209.087V137.845H206.475V148.001H204.277ZM225.786 128.787V130.643H217.607V133.06H225.176V134.891H217.607V137.381C221.978 137.405 224.529 137.332 227.495 136.819L227.739 138.699C224.578 139.212 221.855 139.297 217.07 139.285H215.264V128.787H225.786ZM217.388 144.998C217.388 142.447 220.183 140.97 224.834 140.97C229.412 140.97 232.268 142.447 232.28 144.998C232.268 147.574 229.412 149.039 224.834 149.026C220.183 149.039 217.388 147.574 217.388 144.998ZM219.707 144.998C219.695 146.426 221.575 147.232 224.834 147.244C228.032 147.232 229.973 146.426 229.961 144.998C229.973 143.606 228.032 142.789 224.834 142.801C221.575 142.789 219.695 143.606 219.707 144.998ZM229.839 140.677V127.225H232.158V140.677H229.839ZM253.74 127.2V149.124H251.421V127.2H253.74ZM236.382 136.502C236.382 131.827 238.738 128.848 242.046 128.836C245.293 128.848 247.686 131.827 247.686 136.502C247.686 141.226 245.293 144.205 242.046 144.192C238.738 144.205 236.382 141.226 236.382 136.502ZM238.628 136.502C238.616 139.981 240.007 142.117 242.046 142.117C244.048 142.117 245.439 139.981 245.439 136.502C245.439 133.072 244.048 130.923 242.046 130.911C240.007 130.923 238.616 133.072 238.628 136.502ZM139.641 170.018V172.557H143.059V170.018H145.208V178.807H137.468V170.018H139.641ZM135.295 163.182C135.283 160.191 137.688 158.128 141.033 158.128C143.914 158.128 146.147 159.751 146.624 162.205H150.896V157.2H153.215V168.797H150.896V164.109H146.636C146.184 166.612 143.938 168.272 141.033 168.26C137.688 168.272 135.283 166.197 135.295 163.182ZM137.517 163.182C137.505 165.074 138.97 166.368 141.033 166.38C143.059 166.368 144.5 165.074 144.5 163.182C144.5 161.314 143.059 160.044 141.033 160.057C138.97 160.044 137.505 161.314 137.517 163.182ZM139.641 177H143.059V174.314H139.641V177ZM145.33 177.22C147.966 176.133 149.26 173.838 149.26 171.653V169.871H151.555V171.653C151.543 173.948 152.837 176.268 155.535 177.22L154.338 178.978C152.361 178.221 151.079 176.792 150.383 175.059C149.663 176.744 148.381 178.196 146.501 178.978L145.33 177.22ZM162.517 158.836C165.496 158.848 167.656 161.363 168.01 165.403H172.527V157.2H174.822V179.124H172.527V167.283H168.035C167.778 171.556 165.569 174.205 162.517 174.192C159.258 174.205 156.951 171.226 156.975 166.502C156.951 161.827 159.258 158.848 162.517 158.836ZM159.172 166.502C159.185 169.981 160.54 172.117 162.517 172.117C164.495 172.117 165.85 169.981 165.862 166.502C165.85 163.072 164.495 160.923 162.517 160.911C160.54 160.923 159.185 163.072 159.172 166.502ZM198.21 174.412V176.341H178.191V174.412H182.976V168.699C181.182 167.71 180.083 166.148 180.095 164.183C180.083 160.74 183.464 158.482 188.152 158.47C192.852 158.482 196.233 160.74 196.233 164.183C196.233 166.111 195.183 167.662 193.425 168.65V174.412H198.21ZM182.341 164.183C182.341 166.526 184.722 168.052 188.152 168.064C191.558 168.052 193.975 166.526 193.987 164.183C193.975 161.827 191.558 160.325 188.152 160.325C184.722 160.325 182.341 161.827 182.341 164.183ZM185.271 174.412H191.082V169.554C190.19 169.761 189.202 169.871 188.152 169.871C187.126 169.871 186.15 169.761 185.271 169.554V174.412ZM203.826 159.324L203.606 171.897H201.189L200.969 159.324H203.826ZM200.676 175.438C200.664 174.485 201.458 173.704 202.41 173.704C203.35 173.704 204.131 174.485 204.143 175.438C204.131 176.39 203.35 177.159 202.41 177.171C201.458 177.159 200.664 176.39 200.676 175.438Z" fill="#C3CEE6"/>
</svg>
