<svg width="327" height="327" viewBox="0 0 327 327" fill="none" xmlns="http://www.w3.org/2000/svg">
<path d="M259.687 106.316H255.377V102H252.316V106.316H248V109.377H252.316V113.694H255.377V109.377H259.687V106.316Z" fill="#CAD2F9"/>
<path d="M197.333 214.813H193.52V211H190.813V214.813H187V217.514H190.813V221.327H193.52V217.514H197.333V214.813Z" fill="#CAD2F9"/>
<path d="M292.488 137.76H289.722V135H287.76V137.76H285V139.722H287.76V142.488H289.722V139.722H292.488V137.76Z" fill="#CAD2F9"/>
<path d="M106.936 93.7775H104.169V91.0176H102.207V93.7775H99.4473V95.7395H102.207V98.5059H104.169V95.7395H106.936V93.7775Z" fill="#CAD2F9"/>
<path d="M50.3332 123.813H46.5204V120H43.8128V123.813H40V126.52H43.8128V130.333H46.5204V126.52H50.3332V123.813Z" fill="#CAD2F9"/>
<path d="M127.495 181.766H124.728V179H122.766V181.766H120V183.728H122.766V186.495H124.728V183.728H127.495V181.766Z" fill="#CAD2F9"/>
<path d="M300.016 161.976C300.016 162.722 299.414 163.323 298.669 163.323C297.923 163.323 297.321 162.722 297.321 161.976C297.321 161.231 297.923 160.629 298.669 160.629C299.414 160.629 300.016 161.231 300.016 161.976Z" fill="#E2E6FF"/>
<path d="M115.114 194.557C115.114 195.97 113.97 197.114 112.557 197.114C111.145 197.114 110 195.97 110 194.557C110 193.145 111.145 192 112.557 192C113.97 192 115.114 193.145 115.114 194.557Z" fill="#E2E6FF"/>
<path d="M65.1143 113.557C65.1143 114.97 63.9698 116.114 62.5571 116.114C61.1445 116.114 60 114.97 60 113.557C60 112.145 61.1445 111 62.5571 111C63.9698 111 65.1143 112.145 65.1143 113.557Z" fill="#E2E6FF"/>
<path d="M260.114 160.557C260.114 161.97 258.97 163.114 257.557 163.114C256.145 163.114 255 161.97 255 160.557C255 159.145 256.145 158 257.557 158C258.97 158 260.114 159.145 260.114 160.557Z" fill="#E2E6FF"/>
<path d="M194.557 104.114C195.969 104.114 197.114 102.969 197.114 101.557C197.114 100.145 195.969 99 194.557 99C193.145 99 192 100.145 192 101.557C192 102.969 193.145 104.114 194.557 104.114Z" fill="#E2E6FF"/>
<path d="M90.6945 153.347C90.6945 154.093 90.0928 154.694 89.3472 154.694C88.6017 154.694 88 154.093 88 153.347C88 152.602 88.6017 152 89.3472 152C90.0928 152 90.6945 152.602 90.6945 153.347Z" fill="#E2E6FF"/>
<path d="M202.694 93.3472C202.694 94.0928 202.093 94.6945 201.347 94.6945C200.602 94.6945 200 94.0928 200 93.3472C200 92.6017 200.602 92 201.347 92C202.093 92 202.694 92.6017 202.694 93.3472Z" fill="#E2E6FF"/>
<path d="M250.286 195.502L213.839 195.26L213.407 261.098L269.619 261.471L269.932 214.566L250.286 195.502Z" fill="#D0DBF7"/>
<path d="M250.286 195.502L269.933 214.566L250.162 214.442L250.286 195.502Z" fill="#E3EBFC"/>
<path d="M253.654 220.046L250.182 216.527L241.752 224.84L233.439 216.416L229.921 219.889L238.233 228.312L229.81 236.631L233.282 240.15L241.706 231.831L250.025 240.261L253.543 236.788L245.224 228.358L253.654 220.046Z" fill="#EEF4FF"/>
<path d="M84.5617 162.928L62.7443 152L43 191.404L76.6418 208.264L90.7093 180.194L84.5617 162.928Z" fill="#D0DBF7"/>
<path d="M84.5622 162.928L90.7098 180.193L78.8789 174.268L84.5622 162.928Z" fill="#E3EBFC"/>
<path d="M79.3165 178.664L78.2701 175.525L70.7491 178.023L68.2508 170.502L65.1116 171.548L67.6099 179.069L60.0889 181.568L61.1287 184.707L68.6563 182.209L71.1546 189.73L74.2937 188.683L71.7955 181.162L79.3165 178.664Z" fill="#EEF4FF"/>
<path d="M148.118 71.5742L130.656 77.2509L140.924 108.787L167.849 100.03L160.538 77.5649L148.118 71.5742Z" fill="#D0DBF7"/>
<path d="M148.118 71.5742L160.538 77.5649L151.068 80.6452L148.118 71.5742Z" fill="#E3EBFC"/>
<path d="M153.624 82.7636L151.407 81.6387L148.706 86.9491L143.389 84.2481L142.258 86.4652L147.575 89.1728L144.867 94.4832L147.084 95.6146L149.792 90.2976L155.109 93.0052L156.234 90.7881L150.923 88.0806L153.624 82.7636Z" fill="#EEF4FF"/>
<path d="M70.7808 128.836C74.0522 128.848 76.3838 131.827 76.396 136.502C76.3838 141.226 74.0522 144.205 70.7808 144.192C67.5093 144.205 65.1777 141.226 65.1899 136.502C65.1777 131.827 67.5093 128.848 70.7808 128.836ZM67.4116 136.502C67.3994 139.981 68.791 142.117 70.7808 142.117C72.8071 142.117 74.1743 139.981 74.1743 136.502C74.1743 133.072 72.8071 130.923 70.7808 130.911C68.791 130.923 67.3994 133.072 67.4116 136.502ZM79.6431 149.075V127.2H81.9624V135.77H85.478V137.723H81.9624V149.075H79.6431ZM94.6333 131.131C94.6333 133.938 96.7207 136.636 100.102 137.698L98.9058 139.505C96.3911 138.675 94.4868 136.954 93.498 134.756C92.5093 137.125 90.5684 139.004 87.9683 139.92L86.772 138.138C90.1777 136.954 92.2773 134.097 92.2896 131.131V130.521H87.3823V128.641H99.4429V130.521H94.6333V131.131ZM89.8481 143.387V141.507H104.667V149.075H102.348V143.387H89.8481ZM102.348 140.408V127.2H104.667V140.408H102.348ZM121.879 131.131C121.867 133.926 123.808 136.575 127.153 137.698L125.981 139.505C123.503 138.65 121.684 136.941 120.732 134.793C119.78 137.149 117.875 139.017 115.312 139.92L114.067 138.113C117.485 136.954 119.548 134.122 119.56 131.106V130.521H114.75V128.641H126.591V130.521H121.879V131.131ZM116.972 143.338V141.458H131.425V149.075H129.106V143.338H116.972ZM129.106 140.384V127.2H131.425V132.815H134.599V134.769H131.425V140.384H129.106ZM143.608 130.472C143.596 133.536 145.585 136.27 148.906 137.356L147.636 139.163C145.231 138.284 143.461 136.6 142.509 134.402C141.569 136.905 139.665 138.87 137.016 139.822L135.771 137.967C139.262 136.771 141.289 133.853 141.313 130.569V128.421H143.608V130.472ZM139.36 144.9C139.348 142.251 142.155 140.713 146.757 140.726C151.335 140.713 154.143 142.251 154.155 144.9C154.143 147.537 151.335 149.039 146.757 149.026C142.155 149.039 139.348 147.537 139.36 144.9ZM141.655 144.9C141.643 146.353 143.547 147.208 146.757 147.195C149.943 147.208 151.848 146.353 151.86 144.9C151.848 143.399 149.943 142.532 146.757 142.532C143.547 142.532 141.643 143.399 141.655 144.9ZM147.148 133.548V131.644H151.762V127.2H154.082V140.115H151.762V133.548H147.148ZM170.195 134.207V136.087H165.922V138.858C167.863 138.76 169.792 138.626 171.586 138.431L171.757 140.14C167.094 140.774 161.979 140.909 157.866 140.896L157.548 139.041C159.416 139.029 161.491 139.004 163.627 138.943V136.087H159.501V128.592H170V130.472H161.821V134.207H170.195ZM161.162 148.611V142.435H163.481V146.731H176.274V148.611H161.162ZM173.271 143.606V127.2H175.59V143.606H173.271ZM203.959 127.2V149.075H201.762V127.2H203.959ZM185.087 142.752C189.726 139.993 191.948 136.319 192.351 131.814H186.113V129.91H194.658C194.646 132.046 194.353 134.085 193.681 135.989H197.148V127.762H199.345V148.001H197.148V137.845H192.875C191.582 140.384 189.494 142.605 186.406 144.412L185.087 142.752ZM214.799 132.767C214.775 136.758 217.192 140.787 220.585 142.288L219.194 144.119C216.679 142.923 214.689 140.469 213.664 137.479C212.651 140.689 210.637 143.326 208.012 144.607L206.596 142.654C210.039 141.128 212.456 136.941 212.456 132.767V129.031H214.799V132.767ZM222.563 149.124V127.2H224.882V149.124H222.563ZM248.32 136.258V138.113H239.482V140.018H245.805V145.145H233.061V147.073H246.416V148.855H230.791V143.46H243.51V141.8H230.766V140.018H237.163V138.113H228.374V136.258H248.32ZM230.937 134.646V127.908H245.756V134.646H230.937ZM233.208 132.815H243.437V129.739H233.208V132.815ZM268.095 127.2V149.124H265.776V127.2H268.095ZM250.737 136.502C250.737 131.827 253.093 128.848 256.401 128.836C259.648 128.848 262.041 131.827 262.041 136.502C262.041 141.226 259.648 144.205 256.401 144.192C253.093 144.205 250.737 141.226 250.737 136.502ZM252.983 136.502C252.971 139.981 254.362 142.117 256.401 142.117C258.403 142.117 259.794 139.981 259.794 136.502C259.794 133.072 258.403 130.923 256.401 130.911C254.362 130.923 252.971 133.072 252.983 136.502ZM140.141 170.018V172.557H143.559V170.018H145.708V178.807H137.968V170.018H140.141ZM135.795 163.182C135.783 160.191 138.188 158.128 141.533 158.128C144.414 158.128 146.647 159.751 147.124 162.205H151.396V157.2H153.715V168.797H151.396V164.109H147.136C146.684 166.612 144.438 168.272 141.533 168.26C138.188 168.272 135.783 166.197 135.795 163.182ZM138.017 163.182C138.005 165.074 139.47 166.368 141.533 166.38C143.559 166.368 145 165.074 145 163.182C145 161.314 143.559 160.044 141.533 160.057C139.47 160.044 138.005 161.314 138.017 163.182ZM140.141 177H143.559V174.314H140.141V177ZM145.83 177.22C148.466 176.133 149.76 173.838 149.76 171.653V169.871H152.055V171.653C152.043 173.948 153.337 176.268 156.035 177.22L154.838 178.978C152.861 178.221 151.579 176.792 150.883 175.059C150.163 176.744 148.881 178.196 147.001 178.978L145.83 177.22ZM163.017 158.836C165.996 158.848 168.156 161.363 168.51 165.403H173.027V157.2H175.322V179.124H173.027V167.283H168.535C168.278 171.556 166.069 174.205 163.017 174.192C159.758 174.205 157.451 171.226 157.475 166.502C157.451 161.827 159.758 158.848 163.017 158.836ZM159.672 166.502C159.685 169.981 161.04 172.117 163.017 172.117C164.995 172.117 166.35 169.981 166.362 166.502C166.35 163.072 164.995 160.923 163.017 160.911C161.04 160.923 159.685 163.072 159.672 166.502ZM198.71 174.412V176.341H178.691V174.412H183.476V168.699C181.682 167.71 180.583 166.148 180.595 164.183C180.583 160.74 183.964 158.482 188.652 158.47C193.352 158.482 196.733 160.74 196.733 164.183C196.733 166.111 195.683 167.662 193.925 168.65V174.412H198.71ZM182.841 164.183C182.841 166.526 185.222 168.052 188.652 168.064C192.058 168.052 194.475 166.526 194.487 164.183C194.475 161.827 192.058 160.325 188.652 160.325C185.222 160.325 182.841 161.827 182.841 164.183ZM185.771 174.412H191.582V169.554C190.69 169.761 189.702 169.871 188.652 169.871C187.626 169.871 186.65 169.761 185.771 169.554V174.412ZM204.326 159.324L204.106 171.897H201.689L201.469 159.324H204.326ZM201.176 175.438C201.164 174.485 201.958 173.704 202.91 173.704C203.85 173.704 204.631 174.485 204.643 175.438C204.631 176.39 203.85 177.159 202.91 177.171C201.958 177.159 201.164 176.39 201.176 175.438Z" fill="#C3CEE6"/>
</svg>
