<svg width="212" height="48" viewBox="0 0 212 48" fill="none" xmlns="http://www.w3.org/2000/svg">
<path d="M33.6918 4.35027C34.0938 3.94793 34.7772 3.94793 35.1792 4.35027C35.5811 4.7526 35.5811 5.43657 35.1792 5.8389L32.7672 8.2529L35.6213 11.1095L38.0333 8.69546C40.003 6.72403 40.003 3.50537 38.0333 1.4937C36.0635 -0.517966 32.8476 -0.477733 30.8377 1.4937L28.4258 3.9077L31.2799 6.76427L33.6918 4.35027Z" fill="#20375C"/>
<path d="M5.83438 35.2104C5.43239 35.6127 4.74902 35.6127 4.34703 35.2104C3.94505 34.808 3.94505 34.1241 4.34703 33.7217L6.75896 31.3077L3.90485 28.4512L1.49293 30.8652C-0.476809 32.8366 -0.476809 36.0553 1.49293 38.0669C3.46266 40.0786 6.67856 40.0384 8.68849 38.0669L11.1004 35.6529L8.2463 32.7964L5.83438 35.2104Z" fill="#20375C"/>
<path d="M14.0336 43.4174C13.6316 43.8197 12.9482 43.8197 12.5462 43.4174C12.1443 43.0151 12.1443 42.3311 12.5462 41.9288L14.9582 39.5148L12.1041 36.6582L9.69214 39.0722C7.72241 41.0436 7.72241 44.2623 9.69214 46.274C11.6619 48.2856 14.8778 48.2454 16.8877 46.274L19.2996 43.86L16.4455 41.0034L14.0336 43.4174Z" fill="#20375C"/>
<path d="M39.0389 9.74175L36.627 12.1557L39.4811 15.0123L41.893 12.5983C42.295 12.196 42.9783 12.196 43.3803 12.5983C43.7823 13.0006 43.7823 13.6846 43.3803 14.0869L40.9684 16.5009L43.8225 19.3575L46.2344 16.9435C48.2042 14.9721 48.2042 11.7534 46.2344 9.74175C44.2647 7.73008 41.0488 7.77031 39.0389 9.74175Z" fill="#20375C"/>
<path d="M4.34652 14.0464C3.94454 13.6441 3.94454 12.9601 4.34652 12.5578C4.74851 12.1555 5.43188 12.1555 5.83387 12.5578L8.36639 15.0925L11.2205 12.2359L8.68798 9.70123C6.71824 7.7298 3.50235 7.7298 1.49241 9.70123C-0.51752 11.6727 -0.477321 14.8913 1.49241 16.903L4.02493 19.4377L6.87903 16.5811L4.34652 14.0464Z" fill="#20375C"/>
<path d="M35.1777 41.9292C35.5797 42.3315 35.5797 43.0155 35.1777 43.4178C34.7757 43.8201 34.0923 43.8201 33.6903 43.4178L31.399 41.1245L28.5449 43.9811L30.8362 46.2744C32.806 48.2458 36.0219 48.2458 38.0318 46.2744C40.0417 44.3029 40.0015 41.0843 38.0318 39.0726L35.7405 36.7793L32.8864 39.6359L35.1777 41.9292Z" fill="#20375C"/>
<path d="M12.5477 5.88041C12.1457 5.47808 12.1457 4.79411 12.5477 4.39178C12.9497 3.98945 13.6331 3.98945 14.035 4.39178L16.5676 6.92648L19.4217 4.06991L16.8891 1.53522C14.9194 -0.436218 11.7035 -0.436218 9.69359 1.53522C7.68365 3.50665 7.72385 6.72531 9.69359 8.73698L12.2261 11.2717L15.0802 8.41511L12.5477 5.88041Z" fill="#20375C"/>
<path d="M43.3789 33.7202C43.7809 34.1225 43.7809 34.8065 43.3789 35.2088C42.9769 35.6111 42.2935 35.6111 41.8915 35.2088L39.6002 32.9155L36.7461 35.7721L39.0374 38.0654C41.0072 40.0368 44.223 40.0368 46.233 38.0654C48.2429 36.0939 48.2027 32.8753 46.233 30.8636L43.9417 28.5703L41.0875 31.4269L43.3789 33.7202Z" fill="#20375C"/>
<path d="M30.7155 25.5527L27.0977 29.1335L29.4292 31.467L27.0977 33.8006L30.7155 37.4216L36.6247 31.467L33.0471 27.8863L30.7155 25.5527Z" fill="#20375C"/>
<path d="M36.7475 24.185L34.416 26.5185L37.9937 30.0993L43.9431 24.185L40.3252 20.564L37.9937 18.2305L34.416 21.8515L36.7475 24.185Z" fill="#FF6B37"/>
<path d="M23.4019 18.2305L19.8242 21.8515L22.1557 24.185L19.8242 26.5185L23.4019 30.0993L29.3513 24.185L25.7334 20.564L23.4019 18.2305Z" fill="#FF6B37"/>
<path d="M29.3502 38.7893L25.7725 35.2085L23.441 32.875L19.8633 36.4558L22.1948 38.7893L21.5516 39.433C20.5467 40.4389 20.5467 42.0482 21.5516 43.0138C22.5566 43.9794 24.1645 44.0196 25.1293 43.0138L29.3904 38.7491L29.3502 38.7893Z" fill="#FF6B37"/>
<path d="M14.7573 24.1859L11.1797 20.6051L10.5365 19.9614C9.53151 18.9556 7.92357 18.9556 6.9588 19.9614C5.99404 20.9672 5.95384 22.5766 6.9588 23.5422L7.60198 24.1859L6.9588 24.8296C5.95384 25.8355 5.95384 27.4448 6.9588 28.4104C7.96377 29.376 9.57171 29.4162 10.5365 28.4104L14.7975 24.1457L14.7573 24.1859Z" fill="#FF6B37"/>
<path d="M29.3502 9.58044L25.7725 5.99967L25.1293 5.35594C24.1243 4.3501 22.5164 4.3501 21.5516 5.35594C20.5869 6.36177 20.5467 7.9711 21.5516 8.9367L22.1948 9.58044L19.8633 11.914L23.441 15.4947L29.3502 9.58044Z" fill="#FF6B37"/>
<path d="M22.0338 16.8617L18.4561 13.2809L17.8129 12.6372C16.8079 11.6314 15.2 11.6314 14.2352 12.6372C13.2705 13.643 13.2303 15.2524 14.2352 16.218L14.8784 16.8617L12.5469 19.1952L16.1246 22.776L22.0338 16.8617Z" fill="#20375C"/>
<path d="M22.0338 31.467L18.4561 27.8863L16.1246 25.5527L12.5469 29.1335L14.8784 31.467L14.2352 32.1108C13.2303 33.1166 13.2303 34.7259 14.2352 35.6915C15.2402 36.6571 16.8481 36.6974 17.8129 35.6915L22.074 31.4268L22.0338 31.467Z" fill="#20375C"/>
<path d="M30.7155 10.9492L27.0977 14.53L29.4292 16.8635L27.0977 19.1971L30.7155 22.818L36.6247 16.8635L33.0471 13.2828L30.7155 10.9492Z" fill="#20375C"/>
<path d="M85.227 23.5824C84.5436 23.5422 83.7798 23.5019 83.016 23.4617C82.2523 23.4617 81.4885 23.4215 80.7247 23.4215H75.4185V28.7725C75.4185 29.2553 75.6597 29.4967 76.1019 29.4967C76.7048 29.4967 77.5088 29.4565 78.5138 29.376C79.559 29.2955 80.6845 29.1748 81.8905 29.0139C83.0964 28.853 84.3828 28.692 85.7496 28.4909C87.0761 28.2897 88.3625 28.0885 89.5684 27.8471C89.8096 27.8069 89.9704 27.8471 90.0508 27.9276C90.1714 28.0483 90.2116 28.169 90.2116 28.3299C90.2116 28.6518 90.1714 29.0139 90.0508 29.4162C89.9302 29.8186 89.8096 30.1807 89.689 30.5025C89.5282 30.8244 89.2468 31.0256 88.885 31.1463C88.1615 31.3877 87.2369 31.5888 86.1113 31.8302C84.9858 32.0716 83.82 32.313 82.5739 32.5544C81.3679 32.7958 80.1619 32.997 78.9962 33.1579C77.8304 33.3189 76.8656 33.4396 76.0617 33.52C75.7401 33.52 75.3783 33.52 75.0165 33.52C74.6547 33.52 74.2929 33.3993 73.9312 33.2786C73.2478 33.0372 72.6448 32.7154 72.082 32.2728C71.5192 31.8302 71.1172 31.4279 70.8359 31.106C70.6751 30.9049 70.5545 30.6232 70.4741 30.3818C70.3937 30.1002 70.3535 29.8588 70.3535 29.6174V15.6967C70.3535 15.0529 70.1927 14.6104 69.7907 14.369C69.5495 14.208 69.3083 14.0873 68.9867 13.9666C68.6651 13.8862 68.3435 13.7655 68.0219 13.6448C67.7808 13.5643 67.6602 13.3631 67.6602 13.0815C67.6602 12.8401 67.7004 12.478 67.821 11.955C67.9014 11.4722 68.0219 11.1101 68.1023 10.9491C68.2229 10.7077 68.3837 10.6273 68.5847 10.6273C69.1877 10.6273 69.9515 10.6273 70.9163 10.7077C71.881 10.7882 72.8056 10.9089 73.7301 11.0698H78.3128C78.755 11.0698 79.2374 11.0296 79.7198 10.9089C80.2021 10.7882 80.6845 10.7077 81.0865 10.6273C81.5287 10.5468 81.9709 10.4663 82.4533 10.3859C82.8954 10.3054 83.3778 10.2652 83.8602 10.2652C84.3426 10.2652 84.7848 10.4663 85.1064 10.9089C85.4682 11.3515 85.7496 11.8745 85.9907 12.4378C86.2319 13.001 86.3525 13.6045 86.3927 14.208C86.3927 14.6506 86.1515 14.8518 85.5888 14.8115C84.9054 14.7713 84.1416 14.7311 83.3778 14.6908C82.6141 14.6506 81.8503 14.6506 81.0865 14.6506H75.4185C75.4185 14.9725 75.3783 15.2541 75.3783 15.5357V19.8809H77.8706C78.3128 19.8809 78.7952 19.8407 79.2776 19.72C79.7599 19.6395 80.2423 19.5188 80.6443 19.4384C81.0865 19.3579 81.5287 19.2774 82.0111 19.197C82.4533 19.1165 82.9356 19.0763 83.418 19.0763C83.9004 19.0763 84.3426 19.2774 84.6642 19.72C85.026 20.1626 85.3074 20.6856 85.5486 21.2489C85.7898 21.8121 85.9103 22.4156 85.9505 23.0191C85.9505 23.4617 85.7093 23.6629 85.1466 23.6226L85.227 23.5824ZM91.6588 11.2308C91.6588 10.3859 91.4176 9.74215 90.895 9.25935C90.493 8.93748 90.1312 8.65585 89.7292 8.41445C89.3674 8.17305 88.9654 7.97188 88.5635 7.85118C88.2017 7.73048 88.0409 7.48908 88.1213 7.12698C88.1615 6.72465 88.2821 6.32231 88.4831 5.83951C88.6841 5.35671 88.8448 4.99461 89.0458 4.71298C89.2066 4.47158 89.4478 4.39111 89.8096 4.47158C91.0156 4.71298 92.2215 5.07508 93.3471 5.59811C94.4727 6.12115 95.558 6.72464 96.5228 7.36838C97.0454 7.69024 97.2866 8.13281 97.2062 8.65585C97.1258 9.29958 97.0454 9.94331 96.965 10.6273C96.8846 11.3112 96.8444 12.0354 96.8444 12.7596V18.8751H97.2062C97.6081 18.8751 97.9699 18.8751 98.2915 18.7544C98.6131 18.6739 98.9749 18.5935 99.3367 18.4728C100.06 18.2314 100.703 18.1509 101.226 18.1509C101.668 18.1509 102.03 18.3118 102.311 18.6739C102.713 19.1567 102.995 19.6798 103.196 20.3235C103.397 20.927 103.517 21.5305 103.598 22.0938C103.598 22.3352 103.598 22.4961 103.397 22.657C103.196 22.818 103.035 22.818 102.794 22.7777C102.231 22.6973 101.668 22.6168 101.065 22.5766C100.462 22.5363 99.8191 22.4961 99.0553 22.4961H96.8042V39.8769C96.8042 40.5609 96.5228 41.0839 96.0002 41.446C95.5178 41.8081 94.9952 42.13 94.3923 42.3311C93.7893 42.5725 93.1863 42.6932 92.5833 42.6932C91.8999 42.6932 91.5784 42.3714 91.5784 41.6874V11.2308H91.6588Z" fill="black"/>
<path d="M125.989 16.702C125.989 17.9492 125.748 19.0758 125.265 20.1621C124.783 21.2484 124.1 22.1737 123.256 22.9784C122.411 23.7831 121.406 24.4268 120.2 24.8694C118.994 25.3119 117.708 25.5533 116.301 25.5533C114.894 25.5533 113.568 25.3119 112.402 24.8694C111.236 24.4268 110.191 23.7831 109.347 22.9784C108.503 22.1737 107.819 21.2081 107.337 20.1621C106.854 19.0758 106.613 17.9492 106.613 16.702C106.613 15.4548 106.854 14.3282 107.337 13.2419C107.819 12.1556 108.503 11.2303 109.347 10.4256C110.191 9.62094 111.196 8.9772 112.402 8.53464C113.608 8.09207 114.894 7.85067 116.301 7.85067C117.708 7.85067 119.035 8.09207 120.2 8.53464C121.366 8.9772 122.411 9.62094 123.256 10.4256C124.1 11.2303 124.783 12.1959 125.265 13.2419C125.748 14.3282 125.989 15.4548 125.989 16.702ZM120.763 16.702C120.763 15.1731 120.361 13.8857 119.557 12.9201C118.753 11.9545 117.668 11.4314 116.341 11.4314C115.015 11.4314 113.929 11.9142 113.125 12.9201C112.322 13.9259 111.92 15.1731 111.92 16.702C111.92 18.2309 112.322 19.5183 113.125 20.4839C113.929 21.4495 115.015 21.9726 116.341 21.9726C117.668 21.9726 118.753 21.4898 119.557 20.4839C120.361 19.4781 120.763 18.2309 120.763 16.702ZM115.497 33.1172C115.497 32.7953 115.457 32.5137 115.417 32.2723C115.417 31.9907 115.296 31.7895 115.055 31.6688C114.814 31.5481 114.573 31.4274 114.331 31.3067C114.05 31.2262 113.809 31.1458 113.608 31.0653C113.246 30.9446 113.085 30.7837 113.085 30.5825C113.085 30.1802 113.085 29.8181 113.085 29.4157C113.085 29.0134 113.206 28.6915 113.326 28.3697C113.407 28.088 113.608 27.9673 113.929 27.9673C114.854 27.9673 115.819 27.9673 116.864 28.088C117.909 28.2087 118.954 28.3697 119.919 28.5708H130.21C130.893 28.5708 131.496 28.3294 132.059 27.8466C132.26 27.7259 132.461 27.6455 132.702 27.6455C132.943 27.6455 133.225 27.7259 133.506 27.8064C133.989 27.9673 134.471 28.1283 134.953 28.3294C135.436 28.5306 135.918 28.772 136.32 29.0536C136.642 29.2548 136.802 29.6169 136.802 30.1399C136.802 31.4676 136.722 32.9563 136.561 34.5254C136.4 36.0945 136.199 37.5429 135.918 38.9108C136.32 38.951 136.642 39.1522 136.883 39.5143C137.124 39.9166 137.245 40.319 137.325 40.7213C137.405 41.1236 137.446 41.5662 137.486 42.049C137.486 42.2904 137.446 42.4916 137.285 42.6525C137.124 42.8134 136.923 42.8536 136.642 42.8134C135.999 42.733 135.355 42.6525 134.752 42.6525C134.149 42.6525 133.466 42.6123 132.783 42.6123H120.602C120.522 42.9744 120.281 43.256 119.839 43.4974C119.356 43.7388 118.874 43.8997 118.351 43.9802C117.829 44.0607 117.346 44.1009 116.824 44.1009C116.181 44.1009 115.859 43.7388 115.859 43.1353L115.417 33.2379L115.497 33.1172ZM120.562 31.9504L120.683 39.1522H131.376V31.9504H120.562ZM136.601 23.8233C136.601 24.5073 136.32 25.0303 135.798 25.4326C135.315 25.7947 134.793 26.1166 134.19 26.3178C133.587 26.5592 132.984 26.6799 132.381 26.6799C131.697 26.6799 131.376 26.358 131.376 25.674V11.0291C131.376 10.144 131.094 9.46 130.572 9.01744C130.17 8.69557 129.808 8.45417 129.406 8.253C129.004 8.05184 128.642 7.8909 128.24 7.7702C127.919 7.6495 127.758 7.4081 127.798 7.12647C127.838 6.72414 127.959 6.3218 128.16 5.839C128.361 5.3562 128.562 4.9941 128.763 4.71247C128.883 4.5113 129.125 4.43084 129.446 4.5113C130.652 4.7527 131.858 5.07457 133.024 5.51714C134.23 5.9597 135.315 6.52297 136.28 7.1667C136.802 7.48857 137.044 7.93114 136.963 8.45417C136.883 9.0979 136.802 9.74164 136.722 10.4256C136.642 11.1096 136.601 11.7935 136.601 12.558V23.8233Z" fill="black"/>
<path d="M152.118 11.2709C152.601 11.2709 153.123 11.2307 153.646 11.1502C154.209 11.0697 154.731 10.9893 155.173 10.8686C156.138 10.6272 157.023 10.5467 157.947 10.5467C158.43 10.5467 158.872 10.7479 159.193 11.1904C159.555 11.633 159.837 12.156 160.078 12.7193C160.319 13.2826 160.44 13.8861 160.48 14.4896C160.48 14.9321 160.239 15.1333 159.676 15.0931C158.952 15.0126 158.148 14.9724 157.304 14.9321C156.46 14.9321 155.616 14.9321 154.812 14.9321H151.113C150.591 14.9321 150.068 14.9321 149.586 15.0126C149.104 15.0931 148.621 15.1333 148.139 15.2942C147.094 15.6161 146.089 15.7368 145.204 15.7368C144.842 15.7368 144.561 15.6966 144.4 15.6161C144.239 15.5356 144.038 15.3747 143.878 15.1735C143.556 14.731 143.275 14.1677 142.993 13.524C142.712 12.8802 142.511 12.2767 142.431 11.7135C142.39 11.4721 142.431 11.3111 142.591 11.1502C142.752 10.9893 142.913 10.949 143.154 10.9893C143.837 11.11 144.601 11.2307 145.365 11.2709C146.129 11.3111 147.013 11.3514 147.938 11.3514H152.078L152.118 11.2709ZM151.194 32.4738C150.671 32.4738 150.149 32.5543 149.666 32.675C149.184 32.7957 148.702 32.8762 148.219 33.0371C147.174 33.359 146.169 33.4797 145.285 33.4797C144.923 33.4797 144.641 33.4797 144.481 33.359C144.28 33.2785 144.119 33.1176 143.958 32.9164C143.636 32.4738 143.355 31.9106 143.074 31.2668C142.792 30.6231 142.632 30.0196 142.511 29.4563C142.471 29.2149 142.511 29.054 142.672 28.8931C142.833 28.7321 142.993 28.6919 143.234 28.7321C143.717 28.8126 144.239 28.8528 144.842 28.8931C145.445 28.8931 146.048 28.9333 146.732 28.9333L146.33 21.8925C146.33 21.5706 146.249 21.289 146.169 21.0878C146.089 20.8867 145.888 20.6855 145.646 20.5648C145.486 20.5246 145.405 20.4843 145.325 20.4441C145.244 20.4039 145.164 20.3636 145.003 20.3234C144.722 20.2429 144.601 20.0417 144.601 19.7601C144.601 19.5187 144.601 19.1566 144.601 18.7141C144.641 18.2715 144.722 17.9496 144.802 17.7082C144.842 17.5875 144.923 17.4668 145.003 17.4668C145.084 17.4668 145.164 17.4266 145.325 17.3864C146.089 17.3059 146.933 17.3059 147.898 17.3461C148.862 17.3864 149.706 17.5473 150.47 17.7485C150.953 17.8692 151.154 18.2715 151.073 18.875C150.953 19.5992 150.912 20.3234 150.912 21.0878C150.912 21.8522 150.912 22.5765 150.993 23.3007L151.274 28.7724L153.284 28.6517L153.485 21.0074C153.485 20.6855 153.485 20.4039 153.365 20.2027C153.284 20.0015 153.164 19.8406 152.922 19.7601C152.762 19.6797 152.601 19.6394 152.52 19.5992C152.4 19.5992 152.279 19.5187 152.159 19.4785C151.877 19.398 151.757 19.1968 151.757 18.9152C151.757 18.6738 151.757 18.3117 151.757 17.8692C151.797 17.4266 151.877 17.1047 151.958 16.8633C152.038 16.6219 152.199 16.5415 152.44 16.5415C153.204 16.5012 154.088 16.5415 155.133 16.6219C156.178 16.7024 157.063 16.9036 157.827 17.145C158.309 17.2657 158.51 17.7082 158.43 18.352C158.309 19.0762 158.269 19.8004 158.229 20.5246C158.229 21.2488 158.188 21.9729 158.148 22.6971L157.947 28.2091C158.51 28.1286 159.033 28.0482 159.515 27.9677C159.997 27.8873 160.44 27.8068 160.882 27.7263C161.083 27.6861 161.284 27.7263 161.364 27.8068C161.485 27.9275 161.525 28.0482 161.525 28.2091C161.525 28.531 161.485 28.8528 161.364 29.2954C161.243 29.6978 161.123 30.0598 161.002 30.3817C160.842 30.7036 160.56 30.9048 160.198 31.0255C158.59 31.4278 157.063 31.7497 155.616 32.0313C154.128 32.3129 152.681 32.5141 151.274 32.5945L151.194 32.4738ZM167.997 37.3421C167.997 38.0663 167.756 38.5893 167.313 38.9514C166.831 39.3135 166.349 39.5951 165.786 39.8365C165.263 40.0779 164.701 40.1986 164.057 40.1986C163.414 40.1986 163.173 39.8768 163.173 39.1928V23.5421C162.49 23.6225 161.846 23.6628 161.243 23.6628C160.882 23.6628 160.6 23.6225 160.44 23.5421C160.239 23.4616 160.078 23.3006 159.917 23.0995C159.595 22.6569 159.314 22.1339 159.033 21.4902C158.751 20.8464 158.59 20.2832 158.47 19.7199C158.43 19.4785 158.47 19.3176 158.631 19.1566C158.791 18.9957 158.952 18.9555 159.193 18.9957C160.359 19.2371 161.686 19.3578 163.173 19.3578V13.363C163.173 12.4779 162.892 11.7939 162.369 11.3514C161.686 10.6674 160.882 10.1846 160.038 9.90296C159.716 9.78226 159.595 9.58109 159.676 9.25922C159.716 8.85689 159.837 8.41432 160.038 7.93152C160.198 7.44872 160.399 7.04639 160.6 6.76476C160.801 6.56359 161.002 6.48312 161.284 6.56359C162.49 6.80499 163.615 7.20732 164.62 7.73036C165.625 8.25339 166.67 8.81666 167.635 9.46039C168.238 9.82249 168.519 10.2651 168.439 10.7479C168.359 11.3916 168.278 12.0353 168.158 12.7193C168.037 13.4033 167.997 14.1275 167.997 14.8517V37.3018V37.3421ZM175.353 39.8768C175.353 40.5607 175.112 41.0838 174.63 41.4459C174.147 41.808 173.625 42.1298 173.062 42.331C172.499 42.5724 171.936 42.6931 171.293 42.6931C170.65 42.6931 170.369 42.3712 170.369 41.6873V11.2307C170.369 10.426 170.087 9.78226 169.565 9.25922C169.203 8.93736 168.801 8.61549 168.399 8.37409C167.997 8.13269 167.595 7.93152 167.193 7.77059C166.871 7.64989 166.751 7.44872 166.831 7.12686C166.871 6.72452 166.992 6.28196 167.193 5.79916C167.354 5.31636 167.555 4.91403 167.756 4.63239C167.876 4.43123 168.117 4.35076 168.439 4.43123C169.645 4.67263 170.771 5.07496 171.856 5.59799C172.941 6.12102 173.986 6.68429 174.951 7.32802C175.474 7.64989 175.715 8.09246 175.635 8.61549C175.554 9.25922 175.474 9.90296 175.393 10.5869C175.313 11.2709 175.273 11.9951 175.273 12.7193V39.7963L175.353 39.8768Z" fill="black"/>
<path d="M201.642 21.0477C201.642 22.4559 201.401 23.7433 200.919 24.9101C200.436 26.1171 199.753 27.1632 198.828 28.0081C197.904 28.853 196.818 29.5772 195.572 30.1002C194.326 30.6232 192.879 30.8646 191.351 30.8646C189.824 30.8646 188.377 30.6232 187.09 30.1002C185.804 29.5772 184.719 28.8932 183.834 28.0081C182.95 27.1229 182.267 26.0769 181.784 24.9101C181.302 23.7031 181.061 22.4156 181.061 21.0477C181.061 19.6798 181.302 18.3923 181.784 17.1853C182.267 15.9783 182.95 14.9322 183.834 14.0471C184.719 13.162 185.804 12.478 187.09 11.955C188.377 11.4319 189.784 11.1905 191.351 11.1905C192.919 11.1905 194.326 11.4319 195.572 11.955C196.818 12.478 197.904 13.162 198.828 14.0471C199.713 14.9322 200.436 15.9783 200.919 17.1853C201.401 18.3923 201.642 19.6798 201.642 21.0477ZM196.416 21.0477C196.416 20.2028 196.296 19.3981 196.095 18.6337C195.894 17.8693 195.532 17.1853 195.09 16.622C194.648 16.0588 194.085 15.6162 193.482 15.2943C192.839 14.9725 192.155 14.7713 191.351 14.7713C190.547 14.7713 189.824 14.9322 189.221 15.2943C188.618 15.6564 188.055 16.0588 187.613 16.622C187.171 17.1853 186.809 17.829 186.608 18.6337C186.407 19.4384 186.286 20.2028 186.286 21.0477C186.286 21.8926 186.407 22.6973 186.608 23.4617C186.849 24.2261 187.171 24.9101 187.613 25.4734C188.055 26.0366 188.578 26.4792 189.221 26.8011C189.864 27.1229 190.547 27.2839 191.351 27.2839C192.155 27.2839 192.839 27.1229 193.482 26.8011C194.125 26.4792 194.648 26.0366 195.09 25.4734C195.532 24.9101 195.894 24.2664 196.095 23.4617C196.336 22.6973 196.416 21.8926 196.416 21.0477ZM206.064 11.2308C206.064 10.3859 205.823 9.74215 205.3 9.25935C204.898 8.93748 204.537 8.65585 204.135 8.41445C203.773 8.17305 203.371 7.97188 202.969 7.85118C202.607 7.73048 202.446 7.48908 202.527 7.12698C202.567 6.72465 202.687 6.32231 202.888 5.83951C203.089 5.35671 203.25 4.99461 203.451 4.71298C203.612 4.47158 203.853 4.39111 204.215 4.47158C205.421 4.71298 206.627 5.07508 207.752 5.59811C208.878 6.12115 209.963 6.72464 210.928 7.36838C211.451 7.69024 211.692 8.13281 211.612 8.65585C211.531 9.29958 211.451 9.94331 211.37 10.6273C211.29 11.3112 211.25 12.0354 211.25 12.7596V39.8367C211.25 40.5206 210.968 41.0437 210.446 41.4058C209.963 41.7679 209.441 42.0897 208.838 42.2909C208.235 42.5323 207.632 42.653 207.029 42.653C206.345 42.653 206.024 42.3311 206.024 41.6472V11.1905L206.064 11.2308Z" fill="black"/>
</svg>
