<svg width="44" height="44" viewBox="0 0 44 44" fill="none" xmlns="http://www.w3.org/2000/svg">
<path d="M37.3873 35.2012C36.1392 35.2012 35.1238 36.2165 35.1238 37.4647C35.1238 38.7127 36.1391 39.7281 37.3873 39.7281C38.6353 39.7281 39.6507 38.7127 39.6507 37.4647C39.6507 36.2166 38.6353 35.2012 37.3873 35.2012ZM37.3872 38.3866C36.8788 38.3866 36.4652 37.973 36.4652 37.4647C36.4652 36.9563 36.8788 36.5427 37.3872 36.5427C37.8955 36.5427 38.3092 36.9563 38.3092 37.4647C38.3092 37.973 37.8955 38.3866 37.3872 38.3866Z" fill="white"/>
<path d="M43.4855 37.3461C43.4427 35.6889 42.7413 34.1647 41.5103 33.0544L28.0062 20.8743L39.9463 8.93416C40.0248 8.91074 40.1023 8.88158 40.1771 8.84209L42.7628 7.47741C43.12 7.28881 43.3595 6.95144 43.4198 6.55209C43.4802 6.15266 43.351 5.75972 43.0653 5.47383L40.1541 2.56263C39.8683 2.27699 39.4756 2.1478 39.0759 2.20816C38.6765 2.26844 38.3392 2.508 38.1506 2.86528L36.7858 5.45074C36.746 5.52624 36.7153 5.60429 36.6918 5.68355L31.056 11.3194C30.794 11.5814 30.794 12.006 31.056 12.2681C31.318 12.5298 31.7426 12.5298 32.0046 12.2681L37.1764 7.09619L38.5318 8.45154L25.3057 21.6777L23.9503 20.3223L29.7234 14.5493C29.9853 14.2873 29.9853 13.8627 29.7234 13.6007C29.4613 13.3389 29.0368 13.3389 28.7747 13.6007L24.586 17.7894L20.0272 13.6776C21.3197 9.9572 20.3837 5.81795 17.5799 3.01421C14.708 0.142341 10.3997 -0.772886 6.6039 0.682842C6.39179 0.764234 6.23525 0.947365 6.18805 1.16957C6.14086 1.39177 6.20917 1.62278 6.36982 1.78342L11.6356 7.04934C11.7914 7.20511 11.8773 7.41226 11.8773 7.63258C11.8773 7.85291 11.7915 8.06006 11.6356 8.21592L8.21592 11.6356C8.06014 11.7915 7.85299 11.8773 7.63267 11.8773C7.41234 11.8773 7.20519 11.7916 7.04933 11.6356L1.78342 6.36973C1.62269 6.20909 1.39185 6.14078 1.16956 6.18797C0.947362 6.23525 0.764231 6.3917 0.682839 6.60382C-0.772889 10.3995 0.142338 14.7077 3.0143 17.5798C5.74938 20.3148 9.80844 21.2777 13.4703 20.0946L16.995 23.9489C16.8256 24.2799 16.6054 24.5885 16.3338 24.8601C15.3178 25.8762 13.795 26.1963 12.454 25.6758C12.2062 25.5793 11.925 25.6387 11.7369 25.8267L3.52428 34.0393C1.30106 36.2626 1.30106 39.88 3.52428 42.1032C4.60143 43.1805 6.03339 43.7736 7.55649 43.7736C9.0795 43.7736 10.5115 43.1805 11.5885 42.1035L19.8011 33.891C19.989 33.703 20.0483 33.4217 19.952 33.1739C19.4314 31.833 19.7515 30.31 20.7675 29.294C21.7837 28.278 23.3065 27.9579 24.6474 28.4784C24.8955 28.5748 25.1765 28.5153 25.3646 28.3275L26.9137 26.7783C27.3802 26.3119 27.637 25.6916 27.637 25.032C27.637 24.3724 27.3802 23.7521 26.9137 23.2857L26.2543 22.6262L27.0565 21.824L40.612 34.0505C41.5671 34.912 42.1115 36.0947 42.1446 37.3806C42.1776 38.6664 41.6949 39.8756 40.7853 40.7851C39.8801 41.6905 38.674 42.1723 37.3967 42.1447C36.1167 42.1162 34.936 41.5801 34.0721 40.6353L23.9931 29.6137C23.7429 29.3402 23.3188 29.3214 23.0455 29.5714C22.7722 29.8214 22.7532 30.2457 23.0032 30.519L33.082 41.5406C34.1955 42.7582 35.7172 43.449 37.3666 43.4858C37.4128 43.4868 37.4589 43.4873 37.505 43.4873C39.1027 43.4873 40.5998 42.8676 41.7339 41.7337C42.9061 40.5614 43.528 39.0032 43.4855 37.3461ZM38.0006 6.02313L39.2846 3.59045L42.0375 6.34331L39.6048 7.62737L38.0006 6.02313ZM14.1624 18.8636C13.9777 18.6618 13.6892 18.5922 13.4329 18.6878C10.1531 19.9112 6.43556 19.104 3.96278 16.6315C1.7175 14.3861 0.847503 11.131 1.61414 8.09776L6.10068 12.5843C6.50994 12.9935 7.05395 13.2188 7.63258 13.2188C8.21121 13.2188 8.75522 12.9935 9.1644 12.5843L12.5841 9.16457C12.9933 8.75531 13.2186 8.2113 13.2186 7.63267C13.2186 7.05404 12.9933 6.51003 12.5841 6.10085L8.09768 1.61414C11.1306 0.847164 14.3861 1.71742 16.6313 3.96278C19.167 6.49832 19.9462 10.2897 18.6167 13.6219C18.5126 13.8825 18.5819 14.1805 18.7904 14.3685L23.6362 18.7392L23.0016 19.3737L22.3422 18.7143C21.8758 18.2479 21.2555 17.991 20.5959 17.991C19.9363 17.991 19.316 18.2479 18.8496 18.7143L17.3004 20.2635C17.1125 20.4515 17.0532 20.7328 17.1495 20.9806C17.3279 21.4402 17.4053 21.9208 17.392 22.3954L14.1624 18.8636ZM25.965 25.8297L24.7098 27.0851C22.9834 26.5874 21.1049 27.0595 19.819 28.3454H19.8189C18.5331 29.6313 18.0609 31.5095 18.5587 33.2362L10.64 41.1548C9.8163 41.9784 8.72128 42.4321 7.55658 42.4321C6.39187 42.4321 5.29668 41.9784 4.47319 41.1548C2.77294 39.4546 2.77294 36.6882 4.47319 34.9879L12.3918 27.0693C14.1183 27.5672 15.9966 27.0947 17.2826 25.8089C18.5685 24.523 19.0407 22.6447 18.5429 20.9181L19.7982 19.6629C20.238 19.2229 20.9539 19.2229 21.3936 19.6629L22.5274 20.7966L24.8312 23.1005L25.965 24.2342C26.405 24.6742 26.405 25.39 25.965 25.8297Z" fill="white"/>
<path d="M13.7353 29.6066C13.4732 29.3447 13.0486 29.3447 12.7866 29.6066L6.43277 35.9604C6.17081 36.2224 6.17081 36.647 6.43277 36.9091C6.56374 37.0399 6.7355 37.1054 6.90709 37.1054C7.07868 37.1054 7.25044 37.0399 7.38142 36.9091L13.7353 30.5552C13.9971 30.2932 13.9971 29.8685 13.7353 29.6066Z" fill="white"/>
<path d="M16.0832 31.9523C15.8212 31.6904 15.3966 31.6904 15.1345 31.9523L8.7807 38.306C8.51874 38.5681 8.51874 38.9926 8.7807 39.2547C8.91168 39.3856 9.08335 39.4511 9.25502 39.4511C9.42661 39.4511 9.59837 39.3856 9.72935 39.2547L16.0832 32.9009C16.3452 32.6389 16.3452 32.2143 16.0832 31.9523Z" fill="white"/>
</svg>
