<svg width="192" height="192" viewBox="0 0 192 192" fill="none" xmlns="http://www.w3.org/2000/svg">
<path d="M135.6 17.4859C137.218 15.8687 139.969 15.8687 141.587 17.4859C143.204 19.1031 143.204 21.8523 141.587 23.4694L131.879 33.1725L143.366 44.6545L153.074 34.9514C161.001 27.0272 161.001 14.0898 153.074 6.00393C145.146 -2.08196 132.203 -1.92025 124.113 6.00393L114.406 15.707L125.893 27.189L135.6 17.4859Z" fill="#20375C"/>
<path d="M23.4807 141.523C21.8628 143.14 19.1123 143.14 17.4944 141.523C15.8765 139.906 15.8765 137.157 17.4944 135.54L27.2019 125.836L15.7148 114.354L6.00732 124.058C-1.92041 131.982 -1.92041 144.919 6.00732 153.005C13.935 161.091 26.8783 160.929 34.9678 153.005L44.6752 143.302L33.1881 131.82L23.4807 141.523Z" fill="#20375C"/>
<path d="M56.485 174.514C54.8671 176.131 52.1167 176.131 50.4988 174.514C48.8809 172.897 48.8809 170.148 50.4988 168.53L60.2063 158.827L48.7191 147.345L39.0117 157.049C31.084 164.973 31.084 177.91 39.0117 185.996C46.9394 194.082 59.8827 193.92 67.9722 185.996L77.6796 176.293L66.1925 164.811L56.485 174.514Z" fill="#20375C"/>
<path d="M157.12 38.9945L147.412 48.6976L158.899 60.1796L168.607 50.4765C170.224 48.8593 172.975 48.8593 174.593 50.4765C176.211 52.0937 176.211 54.8429 174.593 56.4601L164.885 66.1631L176.373 77.6451L186.08 67.942C194.008 60.0178 194.008 47.0804 186.08 38.9945C178.152 30.9086 165.209 31.0704 157.12 38.9945Z" fill="#20375C"/>
<path d="M17.4937 56.4597C15.8758 54.8425 15.8758 52.0933 17.4937 50.4761C19.1116 48.8589 21.8621 48.8589 23.48 50.4761L33.6727 60.6643L45.1599 49.1824L34.9671 38.9942C27.0394 31.07 14.0961 31.07 6.00662 38.9942C-2.0829 46.9183 -1.92111 59.8558 6.00662 67.9416L16.1994 78.1299L27.6865 66.6479L17.4937 56.4597Z" fill="#20375C"/>
<path d="M141.588 168.368C143.206 169.986 143.206 172.735 141.588 174.352C139.97 175.969 137.22 175.969 135.602 174.352L126.38 165.134L114.893 176.616L124.115 185.834C132.042 193.758 144.986 193.758 153.075 185.834C161.165 177.91 161.003 164.972 153.075 156.886L143.853 147.669L132.366 159.151L141.588 168.368Z" fill="#20375C"/>
<path d="M50.4991 23.4694C48.8812 21.8523 48.8812 19.1031 50.4991 17.4859C52.117 15.8687 54.8674 15.8687 56.4853 17.4859L66.6781 27.6741L78.1652 16.1921L67.9725 6.00392C60.0447 -1.92025 47.1015 -1.92025 39.012 6.00392C30.9225 13.9281 31.0843 26.8655 39.012 34.9514L49.2048 45.1396L60.6919 33.6577L50.4991 23.4694Z" fill="#20375C"/>
<path d="M174.592 135.54C176.21 137.157 176.21 139.906 174.592 141.524C172.974 143.141 170.224 143.141 168.606 141.524L159.384 132.306L147.897 143.788L157.119 153.006C165.047 160.93 177.99 160.93 186.079 153.006C194.169 145.081 194.007 132.144 186.079 124.058L176.857 114.84L165.37 126.322L174.592 135.54Z" fill="#20375C"/>
<path d="M123.628 102.549L109.229 117.104L118.612 126.484L109.229 135.863L123.628 150.256L147.573 126.484L133.012 111.929L123.628 102.549Z" fill="#20375C"/>
<path d="M147.897 97.0508L138.513 106.43L153.074 120.985L176.857 97.0508L162.458 82.658L153.074 73.2783L138.513 87.6712L147.897 97.0508Z" fill="#FF6B37"/>
<path d="M94.3433 73.2783L79.7822 87.6712L89.166 97.0508L79.7822 106.43L94.3433 120.985L118.127 97.0508L103.727 82.658L94.3433 73.2783Z" fill="#FF6B37"/>
<path d="M118.127 155.755L103.728 141.362L94.3437 131.982L79.9443 146.375L89.3282 155.755L86.7396 158.342C82.6948 162.385 82.6948 168.854 86.7396 172.735C90.7843 176.616 97.2559 176.778 101.139 172.735L118.289 155.593L118.127 155.755Z" fill="#FF6B37"/>
<path d="M59.3979 97.051L44.9986 82.6581L42.4099 80.0707C38.3652 76.0277 31.8936 76.0277 28.0106 80.0707C24.1277 84.1136 23.9659 90.5823 28.0106 94.4636L30.5993 97.051L28.0106 99.6385C23.9659 103.681 23.9659 110.15 28.0106 114.031C32.0554 117.913 38.527 118.074 42.4099 114.031L59.5597 96.8893L59.3979 97.051Z" fill="#FF6B37"/>
<path d="M118.127 38.3474L103.728 23.9545L101.139 21.367C97.0941 17.3241 90.6225 17.3241 86.7396 21.367C82.8566 25.41 82.6948 31.8787 86.7396 35.7599L89.3282 38.3474L79.9443 47.7271L94.3437 62.1199L118.127 38.3474Z" fill="#FF6B37"/>
<path d="M88.8426 67.7802L74.4433 53.3873L71.8546 50.7998C67.8099 46.7568 61.3383 46.7568 57.4553 50.7998C53.5724 54.8427 53.4106 61.3114 57.4553 65.1927L60.044 67.7802L50.6602 77.1598L65.0595 91.5527L88.8426 67.7802Z" fill="#20375C"/>
<path d="M88.8426 126.484L74.4433 112.091L65.0595 102.711L50.6602 117.104L60.044 126.484L57.4553 129.071C53.4106 133.114 53.4106 139.583 57.4553 143.464C61.5001 147.345 67.9717 147.507 71.8546 143.464L89.0044 126.322L88.8426 126.484Z" fill="#20375C"/>
<path d="M123.628 43.8458L109.229 58.4004L118.612 67.7801L109.229 77.1597L123.628 91.5526L147.573 67.7801L133.012 53.2255L123.628 43.8458Z" fill="#20375C"/>
</svg>
