<svg width="45" height="32" viewBox="0 0 45 32" fill="none" xmlns="http://www.w3.org/2000/svg">
<path d="M31.8947 17.8018H30.4112C30.2145 17.8018 30.0258 17.7237 29.8867 17.5846C29.7476 17.4455 29.6695 17.2568 29.6695 17.0601C29.6695 16.8634 29.7476 16.6747 29.8867 16.5356C30.0258 16.3965 30.2145 16.3184 30.4112 16.3184H31.8947C32.0914 16.3184 32.2801 16.3965 32.4192 16.5356C32.5583 16.6747 32.6364 16.8634 32.6364 17.0601C32.6364 17.2568 32.5583 17.4455 32.4192 17.5846C32.2801 17.7237 32.0914 17.8018 31.8947 17.8018Z" fill="white"/>
<path d="M42.2789 28.1859H38.8099C38.3891 29.0737 37.7249 29.8237 36.8947 30.3489C36.0644 30.8741 35.1022 31.1529 34.1198 31.1529C33.1373 31.1529 32.1751 30.8741 31.3448 30.3489C30.5146 29.8237 29.8504 29.0737 29.4296 28.1859H15.8162C15.3953 29.0737 14.7312 29.8237 13.9009 30.3489C13.0707 30.8741 12.1084 31.1529 11.126 31.1529C10.1436 31.1529 9.1813 30.8741 8.35105 30.3489C7.5208 29.8237 6.85666 29.0737 6.4358 28.1859H0.741684C0.544963 28.1859 0.356299 28.1078 0.217197 27.9687C0.0780947 27.8296 -5.16544e-05 27.6409 -5.16544e-05 27.4442V0.741735C-5.16544e-05 0.545015 0.0780947 0.356352 0.217197 0.217249C0.356299 0.078147 0.544963 0 0.741684 0H27.4442C27.6409 0 27.8295 0.078147 27.9686 0.217249C28.1077 0.356352 28.1859 0.545015 28.1859 0.741735V2.96694H32.6235C33.4306 2.97082 34.2146 3.23663 34.8577 3.72439C35.5008 4.21215 35.9681 4.8955 36.1894 5.67168L38.4893 13.7066C39.8094 14.156 40.9559 15.0069 41.7684 16.1401C42.5809 17.2734 43.0187 18.6324 43.0206 20.0269V23.8631C43.5153 24.0382 43.9321 24.3826 44.1975 24.8352C44.463 25.2879 44.5599 25.8199 44.4711 26.3371C44.3824 26.8543 44.1137 27.3234 43.7126 27.6618C43.3114 28.0001 42.8036 28.1857 42.2789 28.1859ZM34.1198 29.6694C34.8533 29.6694 35.5703 29.4519 36.1802 29.0444C36.7901 28.6369 37.2654 28.0577 37.5461 27.38C37.8268 26.7023 37.9003 25.9566 37.7572 25.2372C37.6141 24.5178 37.2609 23.857 36.7422 23.3383C36.2235 22.8196 35.5627 22.4664 34.8433 22.3233C34.1239 22.1802 33.3782 22.2537 32.7005 22.5344C32.0228 22.8151 31.4436 23.2904 31.0361 23.9003C30.6286 24.5102 30.4111 25.2272 30.4111 25.9607C30.4122 26.944 30.8033 27.8867 31.4986 28.5819C32.1938 29.2772 33.1365 29.6683 34.1198 29.6694ZM11.126 29.6694C11.8595 29.6694 12.5765 29.4519 13.1864 29.0444C13.7963 28.6369 14.2716 28.0577 14.5523 27.38C14.833 26.7023 14.9065 25.9566 14.7634 25.2372C14.6203 24.5178 14.2671 23.857 13.7484 23.3383C13.2297 22.8196 12.5689 22.4664 11.8495 22.3233C11.1301 22.1802 10.3844 22.2537 9.70673 22.5344C9.02906 22.8151 8.44984 23.2904 8.04233 23.9003C7.63481 24.5102 7.4173 25.2272 7.4173 25.9607C7.41841 26.944 7.80949 27.8867 8.50477 28.5819C9.20004 29.2772 10.1427 29.6683 11.126 29.6694ZM1.48342 26.7025H5.9877C5.91587 26.2106 5.91587 25.7109 5.9877 25.219H1.48342V26.7025ZM1.48342 23.7355H2.96689V22.2521H1.48342V23.7355ZM26.7024 1.48347H1.48342V16.3182H26.7024V1.48347ZM26.7024 17.8016H1.48342V20.7686H3.70862C3.90535 20.7686 4.09401 20.8467 4.23311 20.9858C4.37221 21.1249 4.45036 21.3136 4.45036 21.5103V23.7355H6.4358C6.85666 22.8478 7.5208 22.0978 8.35105 21.5726C9.1813 21.0473 10.1436 20.7685 11.126 20.7685C12.1084 20.7685 13.0707 21.0473 13.9009 21.5726C14.7312 22.0978 15.3953 22.8478 15.8162 23.7355H26.7024V17.8016ZM16.2643 25.219C16.3361 25.7109 16.3361 26.2106 16.2643 26.7025H28.9815C28.9097 26.2106 28.9097 25.7109 28.9815 25.219H16.2643ZM35.1461 7.41735H31.1528V10.3843H35.9953L35.1461 7.41735ZM36.42 11.8678H30.4111C30.2144 11.8678 30.0257 11.7896 29.8866 11.6505C29.7475 11.5114 29.6694 11.3228 29.6694 11.126V6.67562C29.6694 6.4789 29.7475 6.29023 29.8866 6.15113C30.0257 6.01203 30.2144 5.93388 30.4111 5.93388H34.7153C34.5608 5.50194 34.2773 5.12793 33.9031 4.86257C33.529 4.5972 33.0822 4.45332 32.6235 4.45041H28.1859V13.3512H36.345C36.5153 13.3512 36.6835 13.3598 36.8507 13.3724L36.42 11.8678ZM41.4833 19.2851H40.0537V20.7686H41.5371C41.5371 20.7686 41.5181 19.5275 41.4833 19.2851ZM41.5371 22.2521H39.3119C39.1152 22.2521 38.9265 22.1739 38.7874 22.0348C38.6483 21.8957 38.5702 21.707 38.5702 21.5103V18.5434C38.5702 18.3467 38.6483 18.158 38.7874 18.0189C38.9265 17.8798 39.1152 17.8016 39.3119 17.8016H41.0352C40.6135 16.9145 39.9492 16.165 39.1191 15.6399C38.289 15.1148 37.3272 14.8357 36.345 14.8347H28.1859V23.7355H29.4296C29.8504 22.8478 30.5146 22.0978 31.3448 21.5726C32.1751 21.0473 33.1373 20.7685 34.1198 20.7685C35.1022 20.7685 36.0644 21.0473 36.8947 21.5726C37.7249 22.0978 38.3891 22.8478 38.8099 23.7355H41.5371V22.2521ZM42.2789 25.219H39.258C39.3299 25.7109 39.3299 26.2106 39.258 26.7025H42.2789C42.4756 26.7025 42.6642 26.6243 42.8033 26.4852C42.9424 26.3461 43.0206 26.1575 43.0206 25.9607C43.0206 25.764 42.9424 25.5754 42.8033 25.4363C42.6642 25.2971 42.4756 25.219 42.2789 25.219Z" fill="white"/>
<path d="M34.1198 23.7344C34.5599 23.7344 34.9901 23.8649 35.356 24.1094C35.722 24.3539 36.0072 24.7014 36.1756 25.108C36.344 25.5146 36.3881 25.962 36.3022 26.3937C36.2164 26.8253 36.0044 27.2218 35.6932 27.533C35.382 27.8442 34.9855 28.0562 34.5539 28.142C34.1222 28.2279 33.6748 28.1838 33.2682 28.0154C32.8616 27.847 32.5141 27.5618 32.2696 27.1958C32.0251 26.8299 31.8946 26.3997 31.8946 25.9596C31.8952 25.3696 32.1299 24.804 32.547 24.3869C32.9642 23.9697 33.5298 23.735 34.1198 23.7344ZM34.1198 26.7013C34.2665 26.7013 34.4099 26.6578 34.5318 26.5763C34.6538 26.4948 34.7489 26.379 34.805 26.2434C34.8612 26.1079 34.8759 25.9588 34.8472 25.8149C34.8186 25.671 34.748 25.5388 34.6442 25.4351C34.5405 25.3314 34.4084 25.2607 34.2645 25.2321C34.1206 25.2035 33.9714 25.2182 33.8359 25.2743C33.7004 25.3304 33.5845 25.4255 33.503 25.5475C33.4215 25.6695 33.378 25.8129 33.378 25.9596C33.3782 26.1562 33.4565 26.3448 33.5955 26.4838C33.7346 26.6229 33.9231 26.7011 34.1198 26.7013Z" fill="white"/>
<path d="M11.126 23.7344C11.5661 23.7344 11.9963 23.8649 12.3622 24.1094C12.7282 24.3539 13.0134 24.7014 13.1818 25.108C13.3502 25.5146 13.3943 25.962 13.3084 26.3937C13.2226 26.8253 13.0106 27.2218 12.6994 27.533C12.3882 27.8442 11.9917 28.0562 11.5601 28.142C11.1284 28.2279 10.681 28.1838 10.2744 28.0154C9.86782 27.847 9.52029 27.5618 9.27578 27.1958C9.03128 26.8299 8.90077 26.3997 8.90077 25.9596C8.90143 25.3696 9.13608 24.804 9.55325 24.3869C9.97041 23.9697 10.536 23.735 11.126 23.7344ZM11.126 26.7013C11.2727 26.7013 11.4161 26.6578 11.5381 26.5763C11.66 26.4948 11.7551 26.379 11.8112 26.2434C11.8674 26.1079 11.8821 25.9588 11.8535 25.8149C11.8248 25.671 11.7542 25.5388 11.6505 25.4351C11.5467 25.3314 11.4146 25.2607 11.2707 25.2321C11.1268 25.2035 10.9777 25.2182 10.8421 25.2743C10.7066 25.3304 10.5907 25.4255 10.5092 25.5475C10.4277 25.6695 10.3842 25.8129 10.3842 25.9596C10.3845 26.1562 10.4627 26.3448 10.6017 26.4838C10.7408 26.6229 10.9293 26.7011 11.126 26.7013Z" fill="white"/>
<path d="M14.093 4.44922C14.2897 4.44922 14.4784 4.52737 14.6175 4.66647C14.7566 4.80557 14.8347 4.99423 14.8347 5.19095V12.6083C14.8347 12.805 14.7566 12.9937 14.6175 13.1328C14.4784 13.2719 14.2897 13.35 14.093 13.35C13.8963 13.35 13.7076 13.2719 13.5685 13.1328C13.4294 12.9937 13.3512 12.805 13.3512 12.6083V5.19095C13.3512 4.99423 13.4294 4.80557 13.5685 4.66647C13.7076 4.52737 13.8963 4.44922 14.093 4.44922Z" fill="white"/>
<path d="M18.5434 4.44922C18.7401 4.44922 18.9287 4.52737 19.0678 4.66647C19.2069 4.80557 19.2851 4.99423 19.2851 5.19095V12.6083C19.2851 12.805 19.2069 12.9937 19.0678 13.1328C18.9287 13.2719 18.7401 13.35 18.5434 13.35C18.3466 13.35 18.158 13.2719 18.0189 13.1328C17.8798 12.9937 17.8016 12.805 17.8016 12.6083V5.19095C17.8016 4.99423 17.8798 4.80557 18.0189 4.66647C18.158 4.52737 18.3466 4.44922 18.5434 4.44922Z" fill="white"/>
<path d="M22.9937 4.44922C23.1905 4.44922 23.3791 4.52737 23.5182 4.66647C23.6573 4.80557 23.7355 4.99423 23.7355 5.19095V12.6083C23.7355 12.805 23.6573 12.9937 23.5182 13.1328C23.3791 13.2719 23.1905 13.35 22.9937 13.35C22.797 13.35 22.6084 13.2719 22.4693 13.1328C22.3301 12.9937 22.252 12.805 22.252 12.6083V5.19095C22.252 4.99423 22.3301 4.80557 22.4693 4.66647C22.6084 4.52737 22.797 4.44922 22.9937 4.44922Z" fill="white"/>
<path d="M9.64259 4.44922C9.83931 4.44922 10.028 4.52737 10.1671 4.66647C10.3062 4.80557 10.3843 4.99423 10.3843 5.19095V12.6083C10.3843 12.805 10.3062 12.9937 10.1671 13.1328C10.028 13.2719 9.83931 13.35 9.64259 13.35C9.44587 13.35 9.2572 13.2719 9.1181 13.1328C8.979 12.9937 8.90085 12.805 8.90085 12.6083V5.19095C8.90085 4.99423 8.979 4.80557 9.1181 4.66647C9.2572 4.52737 9.44587 4.44922 9.64259 4.44922Z" fill="white"/>
<path d="M5.19219 4.44922C5.38891 4.44922 5.57758 4.52737 5.71668 4.66647C5.85578 4.80557 5.93393 4.99423 5.93393 5.19095V12.6083C5.93393 12.805 5.85578 12.9937 5.71668 13.1328C5.57758 13.2719 5.38891 13.35 5.19219 13.35C4.99547 13.35 4.80681 13.2719 4.66771 13.1328C4.52861 12.9937 4.45046 12.805 4.45046 12.6083V5.19095C4.45046 4.99423 4.52861 4.80557 4.66771 4.66647C4.80681 4.52737 4.99547 4.44922 5.19219 4.44922Z" fill="white"/>
</svg>
