<svg width="38" height="38" viewBox="0 0 38 38" fill="none" xmlns="http://www.w3.org/2000/svg">
<path d="M37.1556 20.8787H29.9356C27.6978 20.8787 25.4178 21.6899 23.5178 23.0989L22.5467 23.8674H14.7778C13.1311 23.8674 11.8222 25.191 11.8222 26.8562C11.8222 27.3258 11.9067 27.7528 12.1178 28.1371C11.7378 28.0944 11.3578 28.009 11.0622 27.7955L5.10889 24.3371C4.13778 23.6112 2.87111 23.5258 1.81556 24.0382C0.675556 24.636 0 25.7461 0 26.9843C0 28.009 0.464445 28.9056 1.22444 29.5461L1.26667 29.5888L12.5822 37.2742C13.3 37.7438 14.1022 38 14.9467 38H24.8267C25.5867 38 26.3044 37.7865 26.98 37.4022L32.0889 34.3281V35.3955C32.0889 35.8652 32.4689 36.2494 32.9333 36.2494H37.1556C37.62 36.2494 38 35.8652 38 35.3955V21.7326C38 21.2629 37.62 20.8787 37.1556 20.8787ZM32.0889 32.364L26.1356 35.9079C25.7556 36.1213 25.2911 36.2494 24.8689 36.2494H14.9467C14.44 36.2494 13.9756 36.0787 13.5533 35.8225L2.23778 28.1798C1.9 27.8809 1.68889 27.4539 1.68889 26.9843C1.68889 26.3865 2.02667 25.8742 2.53333 25.618C3.04 25.3618 3.67333 25.4045 4.13778 25.7888C4.18 25.7888 4.22222 25.8315 4.22222 25.8742L10.2178 29.3326C10.8511 29.7169 11.5689 29.8876 12.3289 29.8876H25.3333C25.7978 29.8876 26.1778 29.5034 26.1778 29.0337C26.1778 28.564 25.7978 28.1798 25.3333 28.1798H14.7778C14.06 28.1798 13.5111 27.582 13.5111 26.8989C13.5111 26.173 14.06 25.618 14.7778 25.618H22.8C22.9689 25.618 23.18 25.5753 23.3067 25.4472L24.5311 24.5079C26.1356 23.2697 28.0356 22.6292 29.9778 22.6292H32.0889V32.364ZM36.3111 34.5416H33.7778V22.5865H36.3111V34.5416ZM10.8511 15.0292L18.4933 21.1348C18.6622 21.2629 18.8311 21.3056 19 21.3056C19.1689 21.3056 19.38 21.2629 19.5067 21.1348L27.1489 15.0292C32.0467 10.973 31.3711 6.70337 30.8222 5.0382C29.9356 2.22022 27.4444 0.170787 24.8689 0C24.7422 0 24.5733 0 24.4467 0C22.3778 0 20.4356 0.853933 19 2.39101C17.6067 0.896629 15.6222 0 13.5533 0C13.3844 0 13.2578 0 13.1311 0C10.5133 0.170787 8.06444 2.22022 7.17778 5.0382C6.62889 6.66067 5.91111 10.973 10.8511 15.0292ZM8.74 5.55056C9.41556 3.37303 11.2733 1.79326 13.2156 1.66517H13.5533C15.4111 1.66517 17.2267 2.60449 18.3244 4.18427C18.4933 4.39775 18.7467 4.52584 19 4.52584C19.2533 4.52584 19.5067 4.39775 19.6756 4.18427C20.7733 2.60449 22.5467 1.66517 24.4467 1.66517H24.7844C26.7267 1.79326 28.5422 3.37303 29.26 5.55056C30.1467 8.32584 29.0067 11.3146 26.1356 13.7056L19 19.3843L11.9067 13.7056C8.99333 11.3146 7.85333 8.32584 8.74 5.55056Z" fill="white"/>
</svg>
