<svg width="52" height="43" viewBox="0 0 52 43" fill="none" xmlns="http://www.w3.org/2000/svg">
<path d="M49.8262 9.60189L28.8071 0.593514C26.9592 -0.198406 24.8385 -0.197786 22.9883 0.595065L1.97381 9.60138C0.756366 10.123 0 11.2699 0 12.5943C0 13.918 0.755849 15.0642 1.97257 15.5856L4.45664 16.6503C4.45406 16.6759 4.45272 16.702 4.45272 16.7282V28.4834C3.49253 28.8078 2.79901 29.7165 2.79901 30.7848C2.79901 31.4041 3.03239 31.9698 3.41532 32.3993C2.99177 32.8145 2.71053 33.3774 2.65245 34.0152L2.05732 40.562C2.0167 41.0093 2.16708 41.4558 2.46982 41.7873C2.77255 42.1189 3.20375 42.3091 3.65274 42.3091H6.80295C7.25193 42.3091 7.68314 42.1189 7.98587 41.7873C8.2887 41.4558 8.43898 41.0092 8.39837 40.562L7.80324 34.0152C7.74525 33.3775 7.46392 32.8146 7.04036 32.3993C7.4233 31.9699 7.65668 31.4042 7.65668 30.7848C7.65668 29.7166 6.96315 28.8079 6.00297 28.4834V17.313L10.2445 19.1309C10.2419 19.1565 10.2406 19.1825 10.2406 19.2087V25.1272C10.2406 27.5974 11.9319 29.8825 15.0032 31.5618C17.9263 33.1601 21.796 34.0404 25.8992 34.0404C30.0023 34.0404 33.872 33.1601 36.7951 31.5618C39.8663 29.8825 41.5577 27.5974 41.5577 25.1272V19.2087C41.5577 19.1825 41.5564 19.1565 41.5538 19.131L49.8248 15.5863C51.0423 15.0645 51.7986 13.9176 51.7986 12.5932C51.7987 11.2696 51.0429 10.1233 49.8262 9.60189ZM6.84109 40.7419C6.82579 40.7587 6.80915 40.7587 6.80295 40.7587H3.65274C3.64643 40.7587 3.62989 40.7587 3.6146 40.7419C3.5992 40.725 3.60075 40.7086 3.60126 40.7024L4.19639 34.1556C4.24528 33.6186 4.68868 33.2137 5.22789 33.2137C5.767 33.2137 6.2104 33.6186 6.25929 34.1556L6.85442 40.7023C6.85504 40.7086 6.85649 40.725 6.84109 40.7419ZM5.22789 31.6633C4.74346 31.6633 4.34936 31.2692 4.34936 30.7848C4.34936 30.3003 4.74346 29.9062 5.22789 29.9062C5.71233 29.9062 6.10643 30.3003 6.10643 30.7848C6.10643 31.2692 5.71233 31.6633 5.22789 31.6633ZM40.0075 21.8199C40.0075 23.8244 38.3577 25.7815 35.4812 27.1893C35.0966 27.3775 34.9375 27.8418 35.1257 28.2263C35.2602 28.5012 35.5358 28.6609 35.8226 28.6609C35.937 28.6609 36.053 28.6355 36.1628 28.5817C37.7583 27.8009 39.0367 26.8496 39.9481 25.7918C39.6574 27.4265 38.3 28.9722 36.0516 30.2016C33.3525 31.6775 29.7471 32.4902 25.8994 32.4902C22.0516 32.4902 18.4462 31.6775 15.7471 30.2016C13.5069 28.9767 12.1508 27.4377 11.8536 25.8095C12.6371 26.7127 13.6944 27.5388 15.0033 28.2545C17.9264 29.8528 21.7961 30.7331 25.8993 30.7331C27.0471 30.7331 28.192 30.6632 29.3021 30.5256C29.727 30.4728 30.0287 30.0858 29.976 29.6609C29.9233 29.236 29.5367 28.9342 29.1113 28.987C28.0643 29.1169 26.9836 29.1827 25.8993 29.1827C22.0515 29.1827 18.4461 28.3701 15.747 26.8942C13.196 25.4993 11.7911 23.6973 11.7911 21.8199V19.7937L22.9916 24.5941C23.915 24.9899 24.9064 25.1877 25.8983 25.1877C26.8914 25.1877 27.8849 24.9894 28.8104 24.5927L40.0075 19.7939V21.8199ZM49.2142 14.1613L28.1996 23.1675C26.7377 23.794 25.0621 23.7945 23.6024 23.169L7.54174 16.2858L22.2576 13.7265C22.9195 14.5098 24.2684 15.0228 25.8993 15.0228C28.2268 15.0228 29.9819 13.9785 29.9819 12.5939C29.9819 11.2092 28.2268 10.165 25.8993 10.165C23.7854 10.165 22.1439 11.0264 21.8604 12.2218L5.09508 15.1375C5.04588 15.1461 4.99886 15.1594 4.95379 15.1764L2.58341 14.1604C1.93649 13.8835 1.55035 13.2978 1.55035 12.5943C1.55035 11.89 1.93701 11.3038 2.58454 11.0263L23.5991 2.01994C24.3307 1.70646 25.1157 1.54967 25.9005 1.54967C26.684 1.54967 27.4672 1.70594 28.1964 2.01839L49.2154 11.0268C49.8622 11.304 50.2484 11.8896 50.2484 12.5931C50.2484 13.2976 49.8617 13.8838 49.2142 14.1613ZM23.367 12.594C23.367 12.3681 24.2377 11.7154 25.8993 11.7154C27.5608 11.7154 28.4315 12.3681 28.4315 12.594C28.4315 12.8198 27.5608 13.4725 25.8993 13.4725C24.2377 13.4725 23.367 12.8197 23.367 12.594Z" fill="white"/>
<path d="M31.6866 30.095C31.7443 30.095 31.803 30.0885 31.8617 30.0749C32.4467 29.9397 33.0231 29.7828 33.5747 29.6083C33.9828 29.4792 34.2091 29.0436 34.08 28.6355C33.9509 28.2273 33.5155 28.0009 33.1071 28.1301C32.5944 28.2922 32.058 28.4383 31.5128 28.5643C31.0957 28.6606 30.8356 29.0768 30.9319 29.494C31.0148 29.8525 31.3338 30.095 31.6866 30.095Z" fill="white"/>
</svg>
