<svg width="15" height="20" viewBox="0 0 15 20" fill="none" xmlns="http://www.w3.org/2000/svg">
<path d="M5.72772 8.8V2C5.72772 1.44772 6.17543 1 6.72772 1H8.27317C8.82546 1 9.27317 1.44771 9.27317 2V8.8M4.5459 13V19M10.455 13V19M7.50044 13V19" stroke="#F17547" stroke-width="2"/>
<path d="M1 18.0009L1 10.3086C1 9.75631 1.44772 9.30859 2 9.30859H13C13.5523 9.30859 14 9.75631 14 10.3086V18.0009C14 18.5532 13.5523 19.0009 13 19.0009H7.5H2C1.44772 19.0009 1 18.5532 1 18.0009Z" stroke="#F17547" stroke-width="2"/>
</svg>
