<svg width="41" height="44" viewBox="0 0 41 44" fill="none" xmlns="http://www.w3.org/2000/svg">
<path d="M36.478 30.6415H35.3355C34.5343 30.6422 33.7441 30.8287 33.0272 31.1865C31.984 31.705 30.7581 31.705 29.715 31.1865C29.2988 30.9823 28.8572 30.835 28.4018 30.7488L29.8237 19.6981H31.3711C31.774 19.6981 32.1006 19.3715 32.1006 18.9686V16.0503C32.1006 15.6474 31.774 15.3208 31.3711 15.3208H28.4528V13.1321C28.4528 12.9386 28.3759 12.7531 28.2391 12.6163L24.805 9.18224V6.91623L25.911 6.032L27.7999 9.81039L29.1058 9.15816L27.0762 5.09962L27.9786 4.37736H30.6415C31.0444 4.37736 31.3711 4.0507 31.3711 3.6478V0.72956C31.3711 0.32666 31.0444 0 30.6415 0H23.3459C19.7215 0.00437736 16.7843 2.94159 16.7799 6.56604C16.7799 6.96894 17.1065 7.2956 17.5094 7.2956H18.9686V9.18224L16.9936 11.1572C16.8568 11.294 16.7799 11.4794 16.7799 11.673V15.3208H15.3208V9.48428C15.3197 9.3939 15.3016 9.30462 15.2675 9.22091C15.2542 9.19254 15.239 9.165 15.2223 9.13847C15.2048 9.10026 15.1842 9.06341 15.161 9.0283L12.4025 5.58113V0.72956C12.4025 0.32666 12.0759 0 11.673 0H7.2956C6.8927 0 6.56604 0.32666 6.56604 0.72956V5.58113L3.80757 9.0283C3.78432 9.06341 3.7638 9.10026 3.74629 9.13847C3.72951 9.165 3.71437 9.19254 3.70106 9.22091C3.66695 9.30462 3.64889 9.3939 3.6478 9.48428V15.3208H0.72956C0.32666 15.3208 0 15.6474 0 16.0503V18.9686C0 19.3715 0.32666 19.6981 0.72956 19.6981H2.27696L5.11276 41.6783C5.15972 42.0422 5.4696 42.3146 5.83648 42.3145H23.0103C23.8377 43.2419 25.0213 43.7727 26.2642 43.7736H27.4066C28.2079 43.7729 28.998 43.5864 29.715 43.2286C30.7581 42.7101 31.984 42.7101 33.0272 43.2286C33.7441 43.5864 34.5343 43.7729 35.3355 43.7736H36.478C38.8946 43.7712 40.853 41.8128 40.8553 39.3962V35.0189C40.853 32.6023 38.8946 30.6439 36.478 30.6415ZM28.4528 1.45912H29.912V2.91824H28.4528V1.45912ZM30.6415 16.7799V18.239H20.4277V16.7799H30.6415ZM18.2908 5.83648C18.6568 3.32542 20.8083 1.46231 23.3459 1.45912H26.9937V3.29761L23.8194 5.83648H18.2908ZM23.3459 7.2956V8.75472H20.4277V7.2956H23.3459ZM18.239 11.975L20.0002 10.2138H23.7734L26.9937 13.4341V15.3208H18.239V11.975ZM17.5094 16.7799H18.9686V21.8868C18.967 22.1647 19.1235 22.4192 19.372 22.5434L23.7494 24.7321C23.9628 24.8373 24.1246 25.0244 24.198 25.2508C24.2736 25.4938 24.2474 25.7571 24.1251 25.9804C23.9152 26.4016 23.4035 26.5728 22.9823 26.3628C22.9817 26.3626 22.981 26.3622 22.9804 26.3619L20.0184 24.8809C19.6563 24.704 19.2195 24.8541 19.0426 25.2161C18.9942 25.3154 18.9688 25.4242 18.9686 25.5346V32.8302C18.9686 33.6361 18.3153 34.2893 17.5094 34.2893V27.7233H16.0503V34.2893H14.5912V27.7233H13.1321V34.2893H11.673V27.7233H10.2138V34.2893C9.40795 34.2893 8.75472 33.6361 8.75472 32.8302V16.7799H17.5094ZM8.02516 1.45912H10.9434V5.10692H8.02516V1.45912ZM7.64579 6.56604H11.3228L13.0737 8.75472H5.89484L7.64579 6.56604ZM5.10692 10.2138H13.8616V15.3208H5.10692V10.2138ZM1.45912 18.239V16.7799H7.2956V18.239H1.45912ZM21.8868 35.0189V39.3962C21.8881 39.8936 21.9744 40.3871 22.1421 40.8553H6.47776L3.74775 19.6981H7.2956V32.8302C7.2956 34.4419 8.60215 35.7484 10.2138 35.7484H17.5094C19.1211 35.7484 20.4277 34.4419 20.4277 32.8302V26.715L22.3333 27.6678C23.4848 28.2362 24.879 27.7634 25.4473 26.6119C25.4497 26.6071 25.452 26.6023 25.4543 26.5976C25.737 26.0374 25.785 25.3876 25.5879 24.7919C25.3934 24.1959 24.9675 23.7033 24.406 23.4247L20.4277 21.4359V19.6981H28.3529L26.9405 30.6415H26.2642C23.8476 30.6439 21.8892 32.6023 21.8868 35.0189ZM39.3962 39.3962C39.3962 41.0079 38.0897 42.3145 36.478 42.3145H35.3355C34.7609 42.3136 34.1943 42.1799 33.6801 41.9234C32.2256 41.2007 30.5166 41.2007 29.062 41.9234C28.5479 42.1799 27.9813 42.3136 27.4066 42.3145H26.2642C24.6525 42.3145 23.3459 41.0079 23.3459 39.3962V38.2727C24.146 38.9956 25.1859 39.396 26.2642 39.3962H27.4066C28.2079 39.3955 28.998 39.209 29.715 38.8512C30.7581 38.3327 31.984 38.3327 33.0272 38.8512C33.7441 39.209 34.5343 39.3955 35.3355 39.3962H36.478C37.5563 39.396 38.5962 38.9956 39.3962 38.2727V39.3962ZM36.478 37.9371H35.3355C34.7609 37.9363 34.1943 37.8025 33.6801 37.5461C32.2256 36.8233 30.5166 36.8233 29.062 37.5461C28.5479 37.8025 27.9813 37.9363 27.4066 37.9371H26.2642C24.6525 37.9371 23.3459 36.6306 23.3459 35.0189C23.3459 33.4072 24.6525 32.1006 26.2642 32.1006H27.4066C27.9813 32.1015 28.5479 32.2352 29.062 32.4917C30.5167 33.2139 32.2255 33.2139 33.6801 32.4917C34.1943 32.2352 34.7609 32.1015 35.3355 32.1006H36.478C38.0897 32.1006 39.3962 33.4072 39.3962 35.0189C39.3962 36.6306 38.0897 37.9371 36.478 37.9371Z" fill="white"/>
</svg>
