<svg width="23" height="19" viewBox="0 0 23 19" fill="none" xmlns="http://www.w3.org/2000/svg">
<circle cx="6.5" cy="15.5" r="3" fill="#F17547" stroke="#F17547"/>
<circle cx="16.5" cy="15.5" r="3" fill="#F17547" stroke="#F17547"/>
<path d="M20 13H3C1.89543 13 1 12.1046 1 11V9.62438C1 8.67789 1.66348 7.86099 2.58986 7.66689L4.18287 7.33311C5.10925 7.13901 5.77273 6.32211 5.77273 5.37562V3C5.77273 1.89543 6.66816 1 7.77273 1H15C16.1046 1 17 1.89543 17 3V5.36039C17 6.31375 17.6729 7.13458 18.6078 7.32155L20.3922 7.67845C21.3271 7.86542 22 8.68625 22 9.63961V11C22 12.1046 21.1046 13 20 13Z" stroke="#F17547" stroke-width="2"/>
</svg>
