<svg width="14" height="10" viewBox="0 0 14 10" fill="none" xmlns="http://www.w3.org/2000/svg">
<path d="M12.9799 10H1.01956C0.456516 10 0 9.54558 0 8.98545V1.01455C0 0.621656 0.227868 0.263913 0.585131 0.0966733C0.942652 -0.0705663 1.36487 -0.017577 1.66939 0.232636L4.24272 2.34859L6.27404 0.30191C6.4658 0.108564 6.72718 0 6.99974 0H7.0013C7.27438 0.000258485 7.53602 0.109856 7.72752 0.30372L9.74611 2.34833L12.3319 0.231085C12.6367 -0.0183524 13.0586 -0.0703079 13.4154 0.0971903C13.7724 0.264688 14 0.621914 14 1.01455V8.98545C13.9997 9.54558 13.5432 10 12.9799 10Z" fill="#F17547"/>
<path d="M13.4157 0.0971903C13.059 -0.0703079 12.637 -0.018094 12.3323 0.231344L9.74643 2.34833L7.72824 0.30372C7.53676 0.109856 7.27514 0.000258485 7.00182 0C7.0013 0 7.00104 0 7.00052 0C7.00026 0 7.00026 0 7 0V10H12.9803C13.5435 10 14 9.54558 14 8.98545V1.01455C14 0.621914 13.7724 0.264688 13.4157 0.0971903Z" fill="#F59C7C"/>
</svg>
