<svg width="512" height="512" viewBox="0 0 512 512" fill="none" xmlns="http://www.w3.org/2000/svg">
<path d="M361.439 46.6291C365.751 42.3166 373.082 42.3166 377.395 46.6291C381.707 50.9415 381.707 58.2727 377.395 62.5852L351.52 88.4601L382.139 119.079L408.013 93.2038C429.145 72.0727 429.145 37.5729 408.013 16.0105C386.882 -5.5519 352.382 -5.12066 330.82 16.0105L304.945 41.8853L335.564 72.5039L361.439 46.6291Z" fill="#20375C"/>
<path d="M62.5872 377.395C58.2747 381.708 50.9434 381.708 46.6309 377.395C42.3184 373.083 42.3184 365.751 46.6309 361.439L72.5059 335.564L41.8873 304.945L16.0124 330.82C-5.11872 351.951 -5.11872 386.451 16.0124 408.014C37.1435 429.576 71.6433 429.145 93.2057 408.014L119.08 382.139L88.462 351.52L62.5872 377.395Z" fill="#20375C"/>
<path d="M150.559 465.371C146.247 469.683 138.916 469.683 134.603 465.371C130.291 461.059 130.291 453.727 134.603 449.415L160.478 423.54L129.859 392.921L103.985 418.796C82.8535 439.927 82.8535 474.427 103.985 495.99C125.116 517.552 159.616 517.121 181.178 495.99L207.053 470.115L176.434 439.496L150.559 465.371Z" fill="#20375C"/>
<path d="M418.798 103.985L392.923 129.86L423.541 160.479L449.416 134.604C453.729 130.291 461.06 130.291 465.372 134.604C469.685 138.916 469.685 146.248 465.372 150.56L439.497 176.435L470.116 207.054L495.991 181.179C517.122 160.048 517.122 125.548 495.991 103.985C474.86 82.4229 440.36 82.8542 418.798 103.985Z" fill="#20375C"/>
<path d="M46.629 150.559C42.3165 146.247 42.3165 138.916 46.629 134.603C50.9415 130.291 58.2728 130.291 62.5853 134.603L89.7537 161.772L120.372 131.153L93.2038 103.984C72.0727 82.8533 37.5728 82.8533 16.0105 103.984C-5.5519 125.116 -5.12065 159.615 16.0105 181.178L43.1791 208.346L73.7976 177.728L46.629 150.559Z" fill="#20375C"/>
<path d="M377.399 448.983C381.712 453.295 381.712 460.626 377.399 464.939C373.087 469.251 365.755 469.251 361.443 464.939L336.862 440.358L306.243 470.976L330.824 495.557C351.955 516.689 386.455 516.689 408.018 495.557C429.58 474.426 429.149 439.926 408.018 418.364L383.436 393.783L352.818 424.402L377.399 448.983Z" fill="#20375C"/>
<path d="M134.604 62.5852C130.291 58.2727 130.291 50.9415 134.604 46.6291C138.916 42.3166 146.247 42.3166 150.56 46.6291L177.728 73.7976L208.347 43.1791L181.178 16.0105C160.047 -5.12068 125.547 -5.12068 103.985 16.0105C82.4227 37.1416 82.854 71.6414 103.985 93.2038L131.154 120.372L161.772 89.7538L134.604 62.5852Z" fill="#20375C"/>
<path d="M465.371 361.44C469.684 365.752 469.684 373.084 465.371 377.396C461.059 381.709 453.727 381.709 449.415 377.396L424.834 352.815L394.215 383.434L418.796 408.015C439.928 429.146 474.427 429.146 495.99 408.015C517.552 386.884 517.121 352.384 495.99 330.821L471.409 306.24L440.79 336.859L465.371 361.44Z" fill="#20375C"/>
<path d="M329.526 273.465L291.145 312.277L316.157 337.29L291.145 362.302L329.526 400.683L393.351 337.29L354.538 298.478L329.526 273.465Z" fill="#20375C"/>
<path d="M394.215 258.802L369.203 283.815L408.015 322.627L471.409 258.802L433.028 220.421L408.015 195.409L369.203 233.79L394.215 258.802Z" fill="#FF6B37"/>
<path d="M251.47 195.409L212.658 233.79L237.67 258.802L212.658 283.815L251.47 322.627L314.863 258.802L276.482 220.421L251.47 195.409Z" fill="#FF6B37"/>
<path d="M314.864 415.346L276.483 376.965L251.47 351.953L213.089 390.334L238.102 415.346L231.202 422.246C220.421 433.027 220.421 450.277 231.202 460.627C241.983 470.977 259.233 471.408 269.583 460.627L315.295 414.915L314.864 415.346Z" fill="#FF6B37"/>
<path d="M158.323 258.803L119.943 220.422L113.043 213.522C102.261 202.741 85.0115 202.741 74.6616 213.522C64.3116 224.303 63.8804 241.553 74.6616 251.903L81.5615 258.803L74.6616 265.703C63.8804 276.484 63.8804 293.734 74.6616 304.084C85.4428 314.434 102.693 314.865 113.043 304.084L158.755 258.372L158.323 258.803Z" fill="#FF6B37"/>
<path d="M314.864 102.26L276.483 63.8788L269.583 56.9788C258.802 46.1976 241.552 46.1976 231.202 56.9788C220.852 67.76 220.421 85.0099 231.202 95.3599L238.102 102.26L213.089 127.272L251.47 165.653L314.864 102.26Z" fill="#FF6B37"/>
<path d="M236.807 180.747L198.426 142.366L191.527 135.466C180.745 124.685 163.495 124.685 153.146 135.466C142.796 146.247 142.364 163.497 153.146 173.847L160.045 180.747L135.033 205.76L173.414 244.141L236.807 180.747Z" fill="#20375C"/>
<path d="M236.807 337.29L198.426 298.909L173.414 273.896L135.033 312.278L160.045 337.29L153.146 344.19C142.364 354.971 142.364 372.221 153.146 382.571C163.927 392.921 181.177 393.352 191.526 382.571L237.239 336.859L236.807 337.29Z" fill="#20375C"/>
<path d="M329.526 116.922L291.145 155.735L316.157 180.747L291.145 205.759L329.526 244.14L393.351 180.747L354.538 141.935L329.526 116.922Z" fill="#20375C"/>
</svg>
