<svg width="192" height="192" viewBox="0 0 192 192" fill="none" xmlns="http://www.w3.org/2000/svg">
<rect width="192" height="192" fill="#253659"/>
<path d="M116.057 26.5578C116.883 25.7317 118.286 25.7317 119.111 26.5578C119.937 27.384 119.937 28.7884 119.111 29.6145L114.159 34.5714L120.019 40.4371L124.972 35.4802C129.017 31.4321 129.017 24.8229 124.972 20.6922C120.927 16.5614 114.324 16.644 110.197 20.6922L105.244 25.649L111.105 31.5147L116.057 26.5578Z" fill="#E4E8F1"/>
<path d="M58.8545 89.9235C58.029 90.7496 56.6258 90.7496 55.8003 89.9235C54.9749 89.0973 54.9749 87.6929 55.8003 86.8667L60.753 81.9098L54.8924 76.0442L49.9397 81.0011C45.8951 85.0492 45.8951 91.6584 49.9397 95.7891C53.9844 99.9199 60.5879 99.8373 64.715 95.7891L69.6676 90.8322L63.8071 84.9666L58.8545 89.9235Z" fill="#E4E8F1"/>
<path d="M75.6933 106.777C74.8679 107.603 73.4646 107.603 72.6392 106.777C71.8137 105.951 71.8137 104.546 72.6392 103.72L77.5918 98.7631L71.7312 92.8975L66.7786 97.8544C62.734 101.902 62.734 108.512 66.7786 112.642C70.8232 116.773 77.4267 116.691 81.5539 112.642L86.5065 107.686L80.6459 101.82L75.6933 106.777Z" fill="#E4E8F1"/>
<path d="M127.036 37.5456L122.083 42.5025L127.944 48.3681L132.896 43.4113C133.722 42.5851 135.125 42.5851 135.95 43.4113C136.776 44.2374 136.776 45.6419 135.95 46.468L130.998 51.4249L136.858 57.2905L141.811 52.3337C145.856 48.2855 145.856 41.6763 141.811 37.5456C137.766 33.4149 131.163 33.4975 127.036 37.5456Z" fill="#E4E8F1"/>
<path d="M55.8001 46.468C54.9747 45.6419 54.9747 44.2374 55.8001 43.4113C56.6255 42.5851 58.0288 42.5851 58.8542 43.4113L64.0545 48.616L69.9151 42.7503L64.7148 37.5456C60.6702 33.4975 54.0667 33.4975 49.9395 37.5456C45.8123 41.5937 45.8949 48.2029 49.9395 52.3337L55.1398 57.5384L61.0004 51.6727L55.8001 46.468Z" fill="#E4E8F1"/>
<path d="M119.111 103.72C119.936 104.546 119.936 105.951 119.111 106.777C118.285 107.603 116.882 107.603 116.057 106.777L111.352 102.068L105.491 107.933L110.196 112.642C114.241 116.691 120.844 116.691 124.972 112.642C129.099 108.594 129.016 101.985 124.972 97.8544L120.267 93.1453L114.406 99.011L119.111 103.72Z" fill="#E4E8F1"/>
<path d="M72.639 29.6146C71.8135 28.7884 71.8135 27.384 72.639 26.5578C73.4644 25.7317 74.8676 25.7317 75.6931 26.5578L80.8933 31.7625L86.7539 25.8969L81.5537 20.6922C77.5091 16.644 70.9056 16.644 66.7784 20.6922C62.6512 24.7403 62.7337 31.3495 66.7784 35.4802L71.9786 40.6849L77.8392 34.8193L72.639 29.6146Z" fill="#E4E8F1"/>
<path d="M135.95 86.8666C136.775 87.6927 136.775 89.0972 135.95 89.9233C135.124 90.7495 133.721 90.7495 132.896 89.9233L128.191 85.2143L122.33 91.0799L127.035 95.789C131.08 99.8371 137.683 99.8371 141.81 95.789C145.938 91.7408 145.855 85.1317 141.81 81.0009L137.105 76.2919L131.245 82.1575L135.95 86.8666Z" fill="#E4E8F1"/>
<path d="M109.949 70.0958L102.603 77.4485L107.39 82.2402L102.603 87.0319L109.949 94.3846L122.165 82.2402L114.736 74.8875L109.949 70.0958Z" fill="#E4E8F1"/>
<path d="M122.33 67.2869L117.543 72.0786L124.972 79.4313L137.106 67.2869L129.759 59.8516L124.972 55.0599L117.543 62.4953L122.33 67.2869Z" fill="#FF6B37"/>
<path d="M95.0085 55.0599L87.5796 62.4953L92.3671 67.2869L87.5796 72.0786L95.0085 79.4313L107.142 67.2869L99.796 59.8516L95.0085 55.0599Z" fill="#FF6B37"/>
<path d="M107.142 97.2761L99.7955 89.9234L95.008 85.1317L87.6616 92.4844L92.4492 97.2761L91.1285 98.5979C89.0649 100.663 89.0649 103.968 91.1285 105.951C93.1921 107.933 96.4938 108.016 98.4748 105.951L107.224 97.1935L107.142 97.2761Z" fill="#FF6B37"/>
<path d="M77.1793 67.2869L69.8329 59.9342L68.5122 58.6124C66.4486 56.547 63.1469 56.547 61.1659 58.6124C59.1848 60.6778 59.1023 63.9823 61.1659 65.9651L62.4866 67.2869L61.1659 68.6088C59.1023 70.6741 59.1023 73.9787 61.1659 75.9615C63.2294 77.9442 66.5312 78.0269 68.5122 75.9615L77.2619 67.2043L77.1793 67.2869Z" fill="#FF6B37"/>
<path d="M107.142 37.2977L99.7955 29.945L98.4748 28.6231C96.4113 26.5578 93.1095 26.5578 91.1285 28.6231C89.1474 30.6885 89.0649 33.9931 91.1285 35.9758L92.4492 37.2977L87.6616 42.0893L95.008 49.4421L107.142 37.2977Z" fill="#FF6B37"/>
<path d="M92.2019 52.2509L84.8556 44.8982L83.5349 43.5764C81.4713 41.511 78.1695 41.511 76.1885 43.5764C74.2074 45.6417 74.1249 48.9463 76.1885 50.9291L77.5092 52.2509L72.7217 57.0426L80.0681 64.3953L92.2019 52.2509Z" fill="#E4E8F1"/>
<path d="M92.2019 82.2402L84.8556 74.8875L80.0681 70.0958L72.7217 77.4485L77.5092 82.2402L76.1885 83.562C74.1249 85.6274 74.1249 88.932 76.1885 90.9147C78.2521 92.8975 81.5538 92.9801 83.5349 90.9147L92.2845 82.1576L92.2019 82.2402Z" fill="#E4E8F1"/>
<path d="M109.949 40.1066L102.603 47.4593L107.39 52.251L102.603 57.0427L109.949 64.3954L122.165 52.251L114.736 44.8983L109.949 40.1066Z" fill="#E4E8F1"/>
<path d="M44.6388 154.907C43.9964 154.869 43.2784 154.831 42.5604 154.794C41.8425 154.794 41.1245 154.756 40.4065 154.756H35.4183V159.786C35.4183 160.24 35.645 160.467 36.0607 160.467C36.6275 160.467 37.3833 160.467 38.3281 160.353C39.3106 160.278 40.3687 160.164 41.5024 160.013C42.636 159.862 43.8453 159.71 45.1301 159.521C46.4149 159.332 47.5864 159.143 48.7201 158.916C48.9468 158.878 49.098 158.916 49.1735 158.992C49.2869 159.105 49.3247 159.219 49.3247 159.37C49.3247 159.673 49.2869 160.013 49.1735 160.353C49.0602 160.732 48.9468 161.072 48.8334 161.375C48.6823 161.677 48.4178 161.866 48.0777 161.98C47.3974 162.207 46.5283 162.396 45.4702 162.623C44.4121 162.85 43.3162 163.077 42.1448 163.304C41.0111 163.53 39.8774 163.72 38.7815 163.871C37.6856 164.022 36.7787 164.136 36.0229 164.211C35.7206 164.211 35.3805 164.211 35.0404 164.211C34.7003 164.211 34.3602 164.098 34.0201 163.984C33.3777 163.757 32.8109 163.455 32.2818 163.039C31.7528 162.623 31.3749 162.245 31.1103 161.942C30.9592 161.753 30.8458 161.488 30.7702 161.261C30.6947 160.996 30.6569 160.77 30.6569 160.543V147.456C30.6569 146.851 30.5057 146.435 30.1278 146.208C29.9011 146.057 29.6744 145.906 29.372 145.83C29.0697 145.754 28.7674 145.641 28.4651 145.527C28.2384 145.452 28.125 145.263 28.125 144.998C28.125 144.771 28.1628 144.431 28.2762 143.939C28.3517 143.485 28.4651 143.145 28.5407 142.993C28.6541 142.766 28.8052 142.691 28.9941 142.691C29.561 142.691 30.279 142.691 31.1859 142.766C32.0929 142.842 32.962 142.955 33.8312 143.107H38.1391C38.5548 143.107 39.0083 143.069 39.4617 142.955C39.9152 142.842 40.3687 142.766 40.7466 142.691C41.1622 142.615 41.5779 142.539 42.0314 142.464C42.4471 142.388 42.9005 142.35 43.354 142.35C43.8075 142.35 44.2232 142.539 44.5255 142.955C44.8656 143.372 45.1301 143.863 45.3568 144.393C45.5836 144.922 45.6969 145.49 45.7347 146.057C45.7347 146.473 45.508 146.662 44.9789 146.624C44.3365 146.586 43.6185 146.549 42.9005 146.511C42.1826 146.473 41.4646 146.473 40.7466 146.473H35.4183C35.4183 146.775 35.3805 147.04 35.3805 147.305V151.39H37.7234C38.1391 151.39 38.5926 151.352 39.0461 151.238C39.4995 151.163 39.953 151.049 40.3309 150.974C40.7466 150.898 41.1622 150.822 41.6157 150.747C42.0314 150.671 42.4849 150.633 42.9383 150.633C43.3918 150.633 43.8075 150.822 44.1098 151.238C44.4499 151.654 44.7144 152.146 44.9412 152.676C45.1679 153.205 45.2813 153.772 45.319 154.34C45.319 154.756 45.0923 154.945 44.5633 154.907H44.6388ZM50.6851 143.296C50.6851 142.502 50.4584 141.896 49.9671 141.443C49.5892 141.14 49.2491 140.875 48.8712 140.648C48.5311 140.421 48.1532 140.232 47.7753 140.119C47.4352 139.968 47.2841 139.778 47.3597 139.438C47.3975 139.06 47.5108 138.682 47.6998 138.228C47.8887 137.774 48.0399 137.433 48.2288 137.169C48.38 136.942 48.6067 136.866 48.9468 136.942C50.0805 137.169 51.2142 137.509 52.2722 138.001C53.3303 138.493 54.3507 139.06 55.2576 139.665C55.7489 139.968 55.9756 140.384 55.9 140.875C55.8244 141.48 55.7489 142.086 55.6733 142.729C55.5977 143.372 55.5599 144.052 55.5599 144.733V150.482H55.9C56.2779 150.482 56.618 150.482 56.9203 150.369C57.2226 150.293 57.5627 150.217 57.9028 150.104C58.583 149.915 59.1877 149.801 59.6789 149.801C60.0946 149.801 60.4347 149.952 60.6992 150.293C61.0771 150.747 61.3416 151.238 61.5306 151.844C61.7195 152.411 61.8329 152.978 61.9085 153.508C61.9085 153.735 61.9085 153.886 61.7195 154.037C61.5684 154.151 61.3794 154.189 61.1527 154.151C60.6236 154.075 60.0946 153.999 59.5278 153.962C58.9609 153.924 58.3563 153.886 57.6383 153.886H55.5221V170.225C55.5221 170.868 55.2576 171.36 54.7663 171.7C54.3129 172.04 53.8216 172.343 53.2548 172.532C52.6879 172.759 52.1211 172.872 51.5543 172.872C50.9118 172.872 50.6095 172.57 50.6095 171.927V143.296H50.6851Z" fill="white"/>
<path d="M82.9565 148.44C82.9565 149.574 82.7298 150.671 82.2763 151.692C81.8229 152.714 81.1805 153.584 80.3869 154.34C79.5933 155.096 78.6486 155.702 77.5149 156.118C76.3812 156.534 75.172 156.761 73.8494 156.761C72.5267 156.761 71.2797 156.534 70.1838 156.118C69.0879 155.702 68.1054 155.096 67.3118 154.34C66.5183 153.584 65.8759 152.714 65.4224 151.692C64.9689 150.671 64.7422 149.612 64.7422 148.44C64.7422 147.267 64.9689 146.208 65.4224 145.187C65.8759 144.166 66.5183 143.296 67.3118 142.54C68.1054 141.783 69.0502 141.178 70.1838 140.762C71.3175 140.346 72.5267 140.119 73.8494 140.119C75.172 140.119 76.419 140.346 77.5149 140.762C78.6108 141.178 79.5933 141.783 80.3869 142.54C81.1805 143.296 81.8229 144.204 82.2763 145.187C82.7298 146.17 82.9565 147.267 82.9565 148.44ZM78.044 148.44C78.044 147.003 77.6661 145.792 76.9103 144.885C76.1545 143.939 75.1342 143.485 73.8872 143.485C72.6401 143.485 71.6198 143.939 70.864 144.885C70.1083 145.792 69.7304 147.003 69.7304 148.44C69.7304 149.877 70.1083 151.087 70.864 151.995C71.6198 152.903 72.6401 153.394 73.8872 153.394C75.1342 153.394 76.1545 152.941 76.9103 151.995C77.6661 151.049 78.044 149.877 78.044 148.44ZM73.0936 163.871C73.0936 163.568 73.0558 163.304 73.018 163.077C73.018 162.812 72.9046 162.623 72.6779 162.509C72.4512 162.396 72.2244 162.283 71.9977 162.169C71.7332 162.093 71.5064 162.018 71.3175 161.942C70.9774 161.829 70.8262 161.677 70.8262 161.488C70.8262 161.11 70.8262 160.77 70.8262 160.391C70.864 160.013 70.9396 159.711 71.053 159.408C71.1286 159.143 71.3175 159.03 71.6198 159.03C72.489 159.03 73.3959 159.03 74.3784 159.143C75.3609 159.257 76.3435 159.408 77.2504 159.597H86.9244C87.5668 159.597 88.1337 159.37 88.6627 158.916C88.8517 158.803 89.0406 158.727 89.2673 158.727C89.4941 158.727 89.7586 158.803 90.0231 158.879C90.4766 159.03 90.9301 159.181 91.3835 159.37C91.837 159.559 92.2905 159.786 92.6684 160.051C92.9707 160.24 93.1218 160.581 93.1218 161.072C93.1218 162.32 93.0463 163.72 92.8951 165.195C92.7439 166.67 92.555 168.031 92.2905 169.317C92.6684 169.355 92.9707 169.544 93.1974 169.885C93.4242 170.263 93.5375 170.641 93.6131 171.019C93.6887 171.398 93.7265 171.814 93.7642 172.267C93.7642 172.494 93.7265 172.683 93.5753 172.835C93.4241 172.986 93.2352 173.024 92.9707 172.986C92.366 172.91 91.7614 172.835 91.1946 172.835C90.6277 172.835 89.9853 172.797 89.3429 172.797H77.8928C77.8172 173.137 77.5905 173.402 77.1748 173.629C76.7213 173.856 76.2679 174.007 75.7766 174.083C75.2854 174.159 74.8319 174.196 74.3406 174.196C73.736 174.196 73.4337 173.856 73.4337 173.289L73.018 163.984L73.0936 163.871ZM77.855 162.774L77.9684 169.544H88.0203V162.774H77.855ZM92.9329 155.134C92.9329 155.777 92.6684 156.269 92.1771 156.609C91.7236 156.95 91.2324 157.252 90.6655 157.441C90.0987 157.668 89.5319 157.782 88.965 157.782C88.3226 157.782 88.0203 157.479 88.0203 156.836V143.069C88.0203 142.237 87.7558 141.594 87.2645 141.178C86.8866 140.875 86.5465 140.648 86.1686 140.459C85.8285 140.27 85.4506 140.119 85.0727 140.006C84.7704 139.892 84.6193 139.665 84.6571 139.4C84.6949 139.022 84.8082 138.606 84.9972 138.19C85.1861 137.736 85.3751 137.396 85.564 137.131C85.6774 136.942 85.9041 136.866 86.2064 136.942C87.3401 137.169 88.4738 137.471 89.5696 137.887C90.7033 138.304 91.7236 138.833 92.6306 139.438C93.1218 139.741 93.3486 140.157 93.273 140.648C93.1974 141.254 93.1218 141.859 93.0463 142.502C92.9707 143.145 92.9329 143.788 92.9329 144.506V155.096V155.134Z" fill="white"/>
<path d="M107.519 143.334C107.973 143.334 108.464 143.296 108.955 143.22C109.446 143.145 109.976 143.069 110.391 142.955C111.298 142.766 112.13 142.653 112.999 142.653C113.452 142.653 113.868 142.842 114.17 143.258C114.51 143.674 114.775 144.166 115.001 144.695C115.228 145.225 115.342 145.792 115.379 146.359C115.379 146.775 115.153 146.965 114.624 146.927C113.943 146.851 113.188 146.813 112.394 146.775C111.6 146.775 110.807 146.775 110.051 146.775H106.575C106.083 146.775 105.592 146.775 105.139 146.851C104.685 146.851 104.232 146.965 103.778 147.116C102.796 147.418 101.851 147.532 101.02 147.532C100.679 147.532 100.415 147.494 100.264 147.418C100.113 147.343 99.9236 147.191 99.7725 147.002C99.4702 146.586 99.2056 146.057 98.9411 145.452C98.6766 144.847 98.4876 144.279 98.4121 143.75C98.3743 143.523 98.4121 143.372 98.5632 143.22C98.7144 143.069 98.8655 143.031 99.0923 143.069C99.7347 143.182 100.453 143.296 101.171 143.334C101.889 143.372 102.72 143.409 103.589 143.409H107.481L107.519 143.334ZM106.65 163.266C106.159 163.266 105.668 163.341 105.214 163.455C104.761 163.568 104.307 163.644 103.854 163.795C102.871 164.098 101.926 164.211 101.095 164.211C100.755 164.211 100.49 164.211 100.339 164.098C100.15 164.022 99.9992 163.871 99.8481 163.682C99.5457 163.266 99.2812 162.736 99.0167 162.131C98.7522 161.526 98.601 160.959 98.4876 160.429C98.4499 160.202 98.4877 160.051 98.6388 159.9C98.79 159.748 98.9411 159.71 99.1679 159.748C99.6213 159.824 100.113 159.862 100.679 159.9C101.246 159.9 101.813 159.937 102.456 159.937L102.078 153.319C102.078 153.016 102.002 152.751 101.926 152.562C101.851 152.373 101.662 152.222 101.435 152.07C101.284 152.033 101.208 151.995 101.133 151.957C101.057 151.919 100.982 151.881 100.831 151.844C100.566 151.768 100.453 151.579 100.453 151.352C100.453 151.125 100.453 150.785 100.453 150.369C100.49 149.952 100.566 149.65 100.642 149.423C100.679 149.272 100.755 149.196 100.831 149.196C100.906 149.196 100.982 149.158 101.133 149.12C101.851 149.045 102.644 149.045 103.551 149.083C104.458 149.12 105.252 149.272 105.97 149.461C106.423 149.574 106.612 149.952 106.537 150.52C106.423 151.201 106.386 151.881 106.386 152.6C106.386 153.319 106.386 153.999 106.461 154.68L106.726 159.824L108.615 159.71L108.804 152.524C108.804 152.222 108.804 151.957 108.691 151.768C108.615 151.579 108.502 151.428 108.275 151.352C108.124 151.276 107.973 151.238 107.897 151.201C107.784 151.201 107.67 151.125 107.557 151.087C107.293 151.011 107.179 150.822 107.179 150.558C107.179 150.331 107.179 149.99 107.179 149.574C107.179 149.158 107.293 148.856 107.368 148.629C107.444 148.44 107.595 148.326 107.822 148.326C108.54 148.288 109.371 148.326 110.353 148.402C111.336 148.477 112.167 148.667 112.885 148.893C113.339 149.045 113.528 149.423 113.452 150.028C113.339 150.709 113.301 151.39 113.263 152.07C113.263 152.751 113.225 153.432 113.188 154.113L112.999 159.294C113.528 159.219 114.019 159.143 114.472 159.068C114.926 158.992 115.342 158.916 115.757 158.841C115.946 158.803 116.135 158.841 116.211 158.916C116.286 158.992 116.362 159.143 116.362 159.294C116.362 159.597 116.324 159.9 116.211 160.278C116.097 160.656 115.984 160.996 115.871 161.299C115.72 161.602 115.455 161.791 115.115 161.904C113.603 162.282 112.167 162.585 110.807 162.85C109.409 163.114 108.048 163.304 106.726 163.379L106.65 163.266ZM122.446 167.842C122.446 168.523 122.219 169.015 121.804 169.355C121.35 169.695 120.897 169.96 120.368 170.187C119.876 170.414 119.347 170.528 118.743 170.528C118.138 170.528 117.911 170.225 117.911 169.582V154.869C117.269 154.945 116.664 154.983 116.097 154.983C115.757 154.983 115.493 154.983 115.342 154.869C115.153 154.794 115.002 154.642 114.85 154.453C114.548 154.037 114.284 153.546 114.019 152.94C113.754 152.335 113.603 151.806 113.49 151.276C113.452 151.087 113.49 150.898 113.641 150.747C113.792 150.595 113.943 150.558 114.17 150.595C115.266 150.822 116.513 150.936 117.911 150.936V145.3C117.911 144.468 117.647 143.825 117.155 143.409C116.513 142.766 115.757 142.312 114.964 142.048C114.661 141.934 114.548 141.745 114.624 141.443C114.661 141.064 114.775 140.648 114.964 140.194C115.115 139.741 115.304 139.362 115.493 139.098C115.682 138.909 115.871 138.833 116.135 138.909C117.269 139.135 118.327 139.514 119.272 140.005C120.254 140.497 121.199 141.027 122.106 141.632C122.673 141.972 122.937 142.388 122.862 142.842C122.786 143.447 122.71 144.052 122.597 144.695C122.484 145.338 122.446 145.981 122.446 146.7V167.804V167.842ZM129.361 170.225C129.361 170.868 129.135 171.36 128.681 171.7C128.228 172.04 127.736 172.343 127.207 172.532C126.678 172.759 126.149 172.872 125.545 172.872C124.94 172.872 124.676 172.57 124.676 171.927V143.296C124.676 142.539 124.411 141.934 123.92 141.443C123.58 141.14 123.202 140.837 122.824 140.611C122.446 140.384 122.068 140.194 121.69 140.043C121.388 139.93 121.274 139.741 121.35 139.438C121.388 139.06 121.501 138.644 121.69 138.19C121.879 137.736 122.03 137.358 122.219 137.093C122.333 136.904 122.559 136.828 122.862 136.904C123.995 137.131 125.053 137.509 126.074 138.001C127.094 138.493 128.077 139.022 128.983 139.627C129.475 139.93 129.701 140.346 129.626 140.837C129.55 141.443 129.475 142.048 129.399 142.691C129.324 143.334 129.286 144.014 129.286 144.695V170.149L129.361 170.225Z" fill="white"/>
<path d="M154.114 152.524C154.114 153.848 153.887 155.058 153.434 156.155C152.98 157.29 152.338 158.273 151.469 159.068C150.6 159.862 149.579 160.543 148.408 161.034C147.237 161.526 145.876 161.753 144.44 161.753C143.004 161.753 141.644 161.526 140.434 161.034C139.225 160.543 138.205 159.9 137.374 159.068C136.542 158.235 135.9 157.252 135.446 156.155C134.993 155.058 134.766 153.81 134.766 152.524C134.766 151.238 134.993 150.028 135.446 148.893C135.9 147.759 136.542 146.775 137.374 145.943C138.205 145.111 139.225 144.468 140.434 143.977C141.644 143.485 142.966 143.258 144.44 143.258C145.914 143.258 147.237 143.485 148.408 143.977C149.579 144.468 150.6 145.111 151.469 145.943C152.3 146.775 152.98 147.759 153.434 148.893C153.887 150.028 154.114 151.238 154.114 152.524ZM149.202 152.524C149.202 151.73 149.088 150.974 148.899 150.255C148.71 149.536 148.37 148.893 147.955 148.364C147.539 147.834 147.01 147.418 146.443 147.116C145.838 146.813 145.196 146.624 144.44 146.624C143.684 146.624 143.004 146.775 142.437 147.116C141.87 147.418 141.341 147.834 140.926 148.364C140.51 148.893 140.17 149.499 139.981 150.255C139.792 151.012 139.679 151.73 139.679 152.524C139.679 153.319 139.792 154.075 139.981 154.794C140.17 155.512 140.51 156.155 140.926 156.685C141.341 157.214 141.833 157.63 142.437 157.933C143.004 158.235 143.684 158.387 144.44 158.387C145.196 158.387 145.838 158.235 146.443 157.933C147.048 157.63 147.539 157.176 147.955 156.685C148.37 156.155 148.71 155.55 148.899 154.794C149.088 154.037 149.202 153.319 149.202 152.524ZM158.271 143.296C158.271 142.502 158.044 141.896 157.553 141.443C157.175 141.14 156.835 140.875 156.457 140.648C156.117 140.421 155.739 140.232 155.361 140.119C155.021 139.968 154.87 139.778 154.945 139.438C154.983 139.06 155.097 138.682 155.286 138.228C155.475 137.774 155.626 137.433 155.815 137.169C155.966 136.942 156.193 136.866 156.533 136.942C157.666 137.169 158.8 137.509 159.858 138.001C160.916 138.493 161.937 139.06 162.843 139.665C163.335 139.968 163.561 140.384 163.486 140.875C163.41 141.48 163.335 142.086 163.259 142.729C163.184 143.372 163.146 144.052 163.146 144.733V170.187C163.146 170.83 162.881 171.322 162.39 171.662C161.936 172.003 161.445 172.305 160.878 172.494C160.312 172.721 159.745 172.835 159.178 172.835C158.535 172.835 158.233 172.532 158.233 171.889V143.258L158.271 143.296Z" fill="white"/>
</svg>
